<svg xmlns="http://www.w3.org/2000/svg" viewBox="0 0 172 172"><defs><style>.cls-1{fill:#064635;}.cls-2{font-size:15px;font-family:MyriadPro-Regular, Myriad Pro;}.cls-2,.cls-4{fill:#fff2bd;}.cls-3{letter-spacing:0.36em;}</style></defs><title>japan-icon</title><g id="Livello_2" data-name="Livello 2"><g id="Livello_1-2" data-name="Livello 1"><rect class="cls-1" width="172" height="172" rx="12"/><text class="cls-2" transform="translate(24.12 155.65)"><tspan class="cls-3">Giappones</tspan><tspan x="116.25" y="0">e</tspan></text><path class="cls-4" d="M108.59,63.94v8c1,.27,1.92.49,2.84.83a1.45,1.45,0,0,1,.87,2.28,11.37,11.37,0,0,0-1,2A21.31,21.31,0,0,0,110,82.42C109.9,93,110,103.65,110,114.26c0,2.59-.74,3.32-3.3,3.32a14.8,14.8,0,0,1-2,0,2.27,2.27,0,0,1-2.12-2.29c0-.33,0-.67,0-1V64.05H69.42v50.31c0,2.48-.73,3.21-3.23,3.22H65.05c-2.22,0-3-.82-3-3,0-4,0-8,0-12,0-6.47-.06-12.94,0-19.42a13.54,13.54,0,0,0-1.82-7.07c-1.36-2.39-.94-3.22,1.78-3.78.46-.1.92-.18,1.38-.27V64h-14c0-2.15,0-4.14,0-6.12,0-.41-.53-.79-.74-1.22-.34-.68-.62-1.39-1-2.31l8.29,1c.62.07,1.23.14,1.85.18,1.63.1,3.33.66,4.43-1.36.34-.61,1.42-.83,2-1.15-.83-1.09-1.64-2.22-2.55-3.28-.21-.24-.76-.26-1.16-.26-2.9,0-5.8,0-8.7,0-.89,0-1.28-.28-1.43-1.14-.22-1.21-.59-2.4-.8-3.62-.17-1-.67-1.35-1.57-1.18-2.29.43-3.71-.49-4.34-2.7a3.16,3.16,0,0,0-3.75-2.6,4.37,4.37,0,0,1-1.17-.23,26.08,26.08,0,0,0,.64-3.53,1.84,1.84,0,0,0-.8-1.51,4.43,4.43,0,0,1-2.77-3.62c-.27-1.24-.67-2.45-1.05-3.8,27.07,14.15,76.93,13.42,102.54,0-.62,2.11-1.08,4.09-1.81,6-.23.58-1.14,1-1.81,1.26a1.64,1.64,0,0,0-1.06,2.15c.24,1,.44,2,.69,3.17a10.39,10.39,0,0,1-2,.25A2.2,2.2,0,0,0,128.72,40c-.09.27-.29.5-.37.77-.66,2.16-2,3.19-4.33,2.72-1-.2-1.52.32-1.62,1.3a1.72,1.72,0,0,1-.08.28c-.37,1.41-.33,3.36-1.25,4.08s-2.82.24-4.29.25c-1.81,0-3.62,0-5.42,0a2.17,2.17,0,0,0-1.28.74c-.84.88-1.59,1.83-2.19,2.53,1,.87,2,1.81,3,2.67a1.73,1.73,0,0,0,1.15.25c3.74-.39,7.47-.83,11.2-1.25l.82,0c-.2,1.07.39,2.39-1.51,2.47v7.16ZM69.62,53c2,.69,2.06.79,3.33,2.75a1.13,1.13,0,0,0,.75.49c2.64,0,5.28,0,8,0V49.38c-3,0-5.82,0-8.67,0a1.24,1.24,0,0,0-.83.36C71.29,50.79,70.48,51.87,69.62,53Zm20.65,3.27c2.71,0,5.27,0,7.84,0,.28,0,.74-.17.81-.37A4.69,4.69,0,0,1,102.34,53c-.86-1.12-1.67-2.19-2.51-3.24a1.05,1.05,0,0,0-.69-.37c-2.93,0-5.87,0-8.87,0Z"/></g></g></svg>