<svg xmlns="http://www.w3.org/2000/svg" viewBox="0 0 172 172"><defs><style>.cls-1{fill:#064635;}.cls-2{font-size:15px;font-family:MyriadPro-Regular, Myriad Pro;}.cls-2,.cls-5{fill:#fff2bd;}.cls-3{letter-spacing:0.48em;}.cls-4{letter-spacing:0.51em;}</style></defs><title>vegan-icon</title><g id="Livello_2" data-name="Livello 2"><g id="Livello_1-2" data-name="Livello 1"><rect class="cls-1" width="172" height="172" rx="12"/><text class="cls-2" transform="translate(51.06 149.15)"><tspan class="cls-3">V</tspan><tspan class="cls-4" x="15.51" y="0">ega</tspan><tspan x="61.56" y="0">n</tspan></text><path class="cls-5" d="M115.72,49.91a223,223,0,0,0-28,26.66,157.25,157.25,0,0,0-22.28,32c.6,0,1,0,1.31,0A87.89,87.89,0,0,0,89,105.1c14.13-4.24,25.52-12.26,33.27-24.93,9.39-15.35,12.12-32.21,10.55-49.92-.18-1.94-.71-3.85-1.08-5.77-.43.22-.54.4-.58.6a16.9,16.9,0,0,1-9.43,11.76,97.2,97.2,0,0,1-10.94,4.59c-7.47,2.68-15.14,4.83-22.16,8.7A43.87,43.87,0,0,0,68.9,71.61c-3.53,8.11-5,16.67-5.5,25.43-.14,2.56,0,5.14,0,7.68C76,81.94,94.19,64.31,115.72,49.91ZM42.26,44.14c2.12,2.91,2.24,6.08,1.38,9.3C42.53,57.6,41.16,61.7,40,65.85c-2.12,7.53-1.59,14.72,3,21.34a40.25,40.25,0,0,0,8.36,8.58c.46.36.93.7,1.4,1a85.17,85.17,0,0,1-4.89-18.68c-1-6.51-1.3-17.35-.47-19.18.33,13.13,2.34,25.87,7.77,38.1,7.05-10,10-21.56,6.41-31.92C58.19,55.38,51.41,48.64,42.26,44.14Z"/><path class="cls-5" d="M115.72,49.91c-21.53,14.4-39.69,32-52.34,54.81,0-2.54-.12-5.12,0-7.68.49-8.76,2-17.32,5.5-25.43A43.87,43.87,0,0,1,88.59,50.13c7-3.87,14.69-6,22.16-8.7a97.2,97.2,0,0,0,10.94-4.59,16.9,16.9,0,0,0,9.43-11.76c0-.2.15-.38.58-.6.37,1.92.9,3.83,1.08,5.77,1.57,17.71-1.16,34.57-10.55,49.92C114.48,92.84,103.09,100.86,89,105.1a87.89,87.89,0,0,1-22.26,3.43c-.36,0-.71,0-1.31,0a157.25,157.25,0,0,1,22.28-32A223,223,0,0,1,115.72,49.91Z"/><path class="cls-5" d="M42.26,44.14c9.15,4.5,15.93,11.24,19.3,21C65.14,75.5,62.2,87,55.15,97.06c-5.43-12.23-7.44-25-7.77-38.1-.83,1.83-.49,12.67.47,19.18a85.17,85.17,0,0,0,4.89,18.68c-.47-.35-.94-.69-1.4-1A40.25,40.25,0,0,1,43,87.19c-4.57-6.62-5.1-13.81-3-21.34,1.16-4.15,2.53-8.25,3.64-12.41C44.5,50.22,44.38,47.05,42.26,44.14Z"/></g></g></svg>