<svg xmlns="http://www.w3.org/2000/svg" viewBox="0 0 172 172"><defs><style>.cls-1{fill:#064635;}.cls-2{font-size:15px;font-family:MyriadPro-Regular, Myriad Pro;}.cls-2,.cls-6{fill:#fff2bd;}.cls-3{letter-spacing:0.33em;}.cls-4{letter-spacing:0.36em;}.cls-5{letter-spacing:0.36em;}</style></defs><title>vegetarian-icon</title><g id="Livello_2" data-name="Livello 2"><g id="Livello_1-2" data-name="Livello 1"><rect class="cls-1" width="172" height="172" rx="12"/><text class="cls-2" transform="translate(21.12 155.15)"><tspan class="cls-3">V</tspan><tspan class="cls-4" x="13.28" y="0">egeta</tspan><tspan class="cls-5" x="75.89" y="0">r</tspan><tspan class="cls-4" x="86.26" y="0">ian</tspan><tspan x="121.53" y="0">o</tspan></text><path class="cls-6" d="M49.36,75.64c0-3.12,1.16-3.79,3.6-2.53s4.23,3.27,6.13,5.12c8,7.78,17.12,8.66,27.13,4.55,4.3-1.77,8.52-3.74,13-5.19a17.54,17.54,0,0,1,15.9,2,97.43,97.43,0,0,1,15.8,12.76,69.72,69.72,0,0,0,5.75,5.26c1.54,1.21,1.34,2.39.65,3.88a54.64,54.64,0,0,1-11.75,16c-.1.1-.21.18-.31.27-3.13,2.88-3.26,3-5.62-.7s-4.5-7.37-6.56-11.16c-3.5-6.41-8.57-9.79-16.11-9.63a201.89,201.89,0,0,1-22-.21c-6-.51-11.18-2.37-15.53-6.6A56.51,56.51,0,0,1,51,79.87,8.07,8.07,0,0,1,49.36,75.64Z"/><path class="cls-6" d="M81.77,76.62a22.65,22.65,0,0,0-4.85.29,11.06,11.06,0,0,1-10.7-3.29,38.91,38.91,0,0,1-9.5-15.68c-1.65-5.62-.91-10,3.83-13.34,4.27-3,11.94-2.51,15.71,1.1,1.13,1.09,1.79.91,2.89.14a14.37,14.37,0,0,1,12.13-2.28c4.71,1.19,7.1,4.51,6.9,9.35A38.22,38.22,0,0,1,94.42,69C91.78,74.19,87.84,77.35,81.77,76.62Zm12-16.09c2.29-3.74,2.52-7.15.79-10.54a6.68,6.68,0,0,0-7-3.92C92.12,49.85,92.72,55,93.74,60.53Z"/><path class="cls-6" d="M77.73,37a9.37,9.37,0,0,1,7-9c2.71-.84,5.57-.75,8.28-1.5,1.12-.31,2.22-.69,3.34-1,.36-.11.75-.54,1.11-.15s0,.77,0,1.16a16.58,16.58,0,0,1-9.43,11.51,69.63,69.63,0,0,0-8,4.23c-1,.65-1.52.46-1.6-.71C78.26,39.94,77.58,38.37,77.73,37Zm2.16,2.84c2.34-3.29,5.63-5.46,8.94-7.64,1.61-1,3.61-1.62,4.64-3.47a.44.44,0,0,0,.16,0s0-.07.06-.1l-.2.15a66.79,66.79,0,0,0-8.69,5,11.39,11.39,0,0,0-4.89,6.11l-.12.31Z"/><path class="cls-6" d="M50.62,83.59c-4.68-2.06-8.86-5.13-13.91-7.08A8.68,8.68,0,0,0,39.86,83c4.22,3.86,9.32,6.23,14.56,8.29,7.41,2.92,15,5.15,23,5.66l0,.54c-1.55,0-3.1,0-4.65,0a47.29,47.29,0,0,1-4.91-.37C58,95.75,48.65,92.8,40.43,86.92a14,14,0,0,1-6.15-9.11c-.43-2.44.83-3.6,3.25-3,3.32.77,5.74,3.07,8.47,4.82,1.73,1.1,3.3,2.44,5,3.67Z"/></g></g></svg>