<svg xmlns="http://www.w3.org/2000/svg" viewBox="0 0 172 172"><defs><style>.cls-1{fill:#aa2b1d;}.cls-2,.cls-3{fill:#fff2bd;}.cls-3{font-size:15px;font-family:MyriadPro-Regular, Myriad Pro;}.cls-4{letter-spacing:0.45em;}.cls-5{letter-spacing:0.44em;}</style></defs><title>indian-icon</title><g id="Livello_2" data-name="Livello 2"><g id="Livello_1-2" data-name="Livello 1"><rect class="cls-1" width="172" height="172" rx="12"/><path class="cls-2" d="M145.12,100.71v7.2H26.88v-7.2ZM86,105.08c-5.44,0-10.89,0-16.33,0-.56,0-1.11.46-1.67.71a5,5,0,0,0,1.6.63q16.41,0,32.84,0c.56,0,1.12-.47,1.68-.72a5.73,5.73,0,0,0-1.78-.62C96.85,105.06,91.41,105.08,86,105.08Zm0-1.49c5.45,0,10.91,0,16.36,0a5.87,5.87,0,0,0,1.8-.63l-1.85-.75a.49.49,0,0,0-.17,0H69.85a3,3,0,0,0-1,0,3.26,3.26,0,0,0-.83.67c.29.23.55.57.88.66a5.9,5.9,0,0,0,1.4,0Z"/><path class="cls-2" d="M75,99.53h-4c0-1.29,0-2.5,0-3.71,0-1.58-1.61-3.35-3-3.38s-3,1.74-3,3.33c0,1.22,0,2.44,0,3.75H63.23V77.37h9.4V72.65H62.19a39.08,39.08,0,0,1,2.91-4.74c1.1-1.33,3.08-2,2.89-4.36.2.22.61.47.58.64-.3,1.58.8,2.25,1.79,3.1a6,6,0,0,1,2,2.39c.49,1.49,1.31,1.77,2.71,1.76,7.39-.07,14.77,0,22.16,0,1.19,0,2-.21,2.32-1.51A5.08,5.08,0,0,1,100.77,68c1.18-1.32,3.32-2,3-4.48.22.2.65.44.63.6-.28,1.65,1,2.26,1.88,3.25a43.43,43.43,0,0,1,3.28,4.6l-.2.52h-10v4.69h9.36V99.5l-1.76.1c0-1.37,0-2.59,0-3.8,0-1.58-1.62-3.36-3-3.36s-3,1.75-3,3.36c0,1.11,0,2.22,0,3.34,0,.1-.1.2-.21.38H97V97.35c0-7.16,0-14.31,0-21.46,0-1.52-.29-2.15-2-2.12Q86,74,77,73.77c-1.68,0-2,.54-2,2.11.07,7.21,0,14.42,0,21.63ZM107,89.91c0-2,0-3.79,0-5.59,0-1.1-1.91-3-2.85-2.66C103,82.1,101.43,83,101.18,84c-.47,1.85-.13,3.89-.13,5.91Zm-35.9,0c0-1.94.06-3.74,0-5.53,0-1.16-1.93-2.79-3-2.76s-2.87,1.57-2.92,2.66c-.08,1.84,0,3.69,0,5.63Z"/><path class="cls-2" d="M86,67.58c-3.57,0-7.15,0-10.71,0a2.88,2.88,0,0,1-3.08-2c-1.16-3-1.38-6,.45-8.59a84.18,84.18,0,0,1,6.81-8,2.62,2.62,0,0,1,1.75-.57c3.22,0,6.44-.06,9.66,0a2.67,2.67,0,0,1,1.74.61,80.12,80.12,0,0,1,6.45,7.36c2.07,2.85,2.09,6.09.66,9.35a2.72,2.72,0,0,1-2.85,1.83C93.25,67.54,89.62,67.58,86,67.58Z"/><path class="cls-2" d="M78.35,99.55H76.44V75.18H95.61V99.5h-2c0-.62-.09-1.24-.1-1.85,0-3.23,0-6.45,0-9.67,0-4.5-2.92-7.28-7.46-7.28S78.6,83.53,78.57,88q0,5.53,0,11.07C78.53,99.19,78.45,99.29,78.35,99.55Z"/><path class="cls-2" d="M113.48,92.45c-2.88,1.72-1.36,4.61-2,7-.94.28-1.62.31-1.62-1.06,0-6.81,0-13.61,0-20.41a2.79,2.79,0,0,1,.16-.59h6.59v22c-1,.39-1.47.07-1.43-1,0-.82,0-1.64,0-2.46A3.54,3.54,0,0,0,113.48,92.45Zm1.88-2.58c-.62-2.88,1.15-6-1.87-8.36-3.13,2.31-1.29,5.51-1.92,8.36Z"/><path class="cls-2" d="M28.67,62.18a2.37,2.37,0,0,0,.54-4l2.93-5.41L35,58.15c-1.27,1.65-1.14,3.05.71,4.07-2.13,2.75-.8,5.86-.91,8.85,0,1.22,0,2.45,0,3.82h-5.4C28.91,70.74,30.76,66.41,28.67,62.18Z"/><path class="cls-2" d="M136.38,62.25c1.73-1.1,1.91-2.78.57-4l3-5.48,2.88,5.42c-1.24,1.56-1.1,3.07.77,4.09-1.95,2.1-1.11,4.62-1.06,7,0,1.81,0,3.61,0,5.58h-5.26C136.48,70.73,138.81,66.32,136.38,62.25Z"/><path class="cls-2" d="M55.35,77.35h6.58V99.48H60.49c-.19-2-.28-3.81-.58-5.63-.09-.53-.8-1-1.23-1.44a3.34,3.34,0,0,0-1.93,3.36,15.49,15.49,0,0,1,0,2.81c-.06.43-.59.78-.91,1.17l-.45-.3Zm5.06,12.56c-.66-2.9,1.18-6.09-1.94-8.45-2.83,2.53-1.33,5.61-1.68,8.45Z"/><path class="cls-2" d="M136,99.46c-.47-3.77,1.3-7.53-.94-11.32h9.59c-2,3.75-.54,7.49-.79,11.32Z"/><path class="cls-2" d="M27.27,88.14h9.62c-2,3.76-.5,7.5-.89,11.32H28.3C27.65,95.77,29.53,91.94,27.27,88.14Z"/><path class="cls-2" d="M143.15,87.17H136.7c-.74-3.69,1.25-7.55-1.07-11.34h8.52C141.89,79.51,143.72,83.32,143.15,87.17Z"/><path class="cls-2" d="M36.39,75.82c-2.27,3.75-.5,7.51-.94,11.27H28.87c-.62-3.65,1.29-7.49-1-11.27Z"/><path class="cls-2" d="M45.42,65.07a11.25,11.25,0,0,1,1.2,2.13c.27.87,1.4,1.59.46,2.81-.26.34.35,1.35.67,2.42-1.42,2.56.1,5.74-.33,8.94h-4c-.52-3.09,1.05-6.23-.06-9.18a23.63,23.63,0,0,1,.07-2.92,8.23,8.23,0,0,1,.8-2.17C44.61,66.4,45,65.75,45.42,65.07Z"/><path class="cls-2" d="M124.75,81.38c-.74-3.1.94-6.31-.71-9.39,1.54-.79,1.18-1.92.39-3q1.14-2.06,2.18-4l2.13,4c-.8.93-1.18,2.07,0,2.78v9.58Z"/><path class="cls-2" d="M98.45,70.62H73.56c-.5-1.49-.12-2.07,1.47-2.06q11,.09,22,0C98.58,68.55,99,69.12,98.45,70.62Z"/><path class="cls-2" d="M48.45,91.2v8.29H42.39V91.2Z"/><path class="cls-2" d="M129.59,99.55h-6v-8.4h6Z"/><path class="cls-2" d="M129.18,82.07V90.3H124V82.07Z"/><path class="cls-2" d="M48,90.39H42.85V82H48Z"/><path class="cls-2" d="M90.32,47.53H81.76l-.22-.37c1-.87,1.91-1.75,2.9-2.59s1.41-1.66.33-2.77a1.44,1.44,0,0,1-.4-1.25c.78-1.53.7-3.23,1-4.83a1.17,1.17,0,0,1,.66-.61c.09,0,.47.31.52.53.38,1.61.13,3.35,1,4.88.16.26-.08,1-.36,1.25-1.15,1.2-.62,2,.43,2.9s1.88,1.66,2.82,2.49Z"/><path class="cls-2" d="M102.44,76.51a24.34,24.34,0,0,1,.86-3c.06-.16,1.18-.16,1.25,0a24.28,24.28,0,0,1,.93,3Z"/><path class="cls-2" d="M69.59,76.58H66.68a23,23,0,0,1,.69-3.06c.06-.16,1.3-.18,1.38,0A22.78,22.78,0,0,1,69.59,76.58Z"/><path class="cls-2" d="M72.33,76.59H70.26a20.24,20.24,0,0,1,0-2.71c0-.21.73-.32,1.12-.47Z"/><path class="cls-2" d="M99.89,76.46c.52-1.09-.88-2.64,1.07-3a4.48,4.48,0,0,1,.78,2C101.84,76.66,101.73,76.67,99.89,76.46Z"/><path class="cls-2" d="M66.12,76.57H64c.17-1.09.3-2.08.53-3a1.76,1.76,0,0,1,.91,0C65.7,74.43,65.88,75.41,66.12,76.57Z"/><path class="cls-2" d="M105.73,76.65c.33-1.3.55-2.26.84-3.19a1.38,1.38,0,0,1,.78,0c.26,1,.45,1.93.69,3.07Z"/><text class="cls-3" transform="translate(42.24 154.15)"><tspan class="cls-4">I</tspan><tspan class="cls-5" x="10.35" y="0">ndian</tspan><tspan x="79.29" y="0">o</tspan></text></g></g></svg>