<svg xmlns="http://www.w3.org/2000/svg" viewBox="0 0 1366 200"><defs><style>.cls-1{fill:#cc561e;}.cls-2{fill:#aa2b1d;}.cls-3{opacity:0.3;}.cls-4{fill:#fff2bd;}</style></defs><title>bg-footer_1</title><g id="Livello_2" data-name="Livello 2"><g id="Livello_1-2" data-name="Livello 1"><rect class="cls-1" width="1366" height="200" transform="translate(1366 200) rotate(-180)"/><path class="cls-2" d="M0,154.27S173,56.06,435,58.82c224,2.36,294.54,44,588,57C1200,123.67,1366,34,1366,34V200H0Z"/><g class="cls-3"><path class="cls-4" d="M1106.3,39.85l1.87-4.73,6.58-.57a7.28,7.28,0,0,0,6.6-7.86,7.27,7.27,0,0,0-7.86-6.6l-4.84.42.42,4.79,4.84-.42a2.45,2.45,0,0,1,.42,4.88l-9.54.83-3.62,9.17-27.29,2.39-2.48-3.41,8.54-.75-.45-5.09L1062,34.43l0,0L1069.64,45,1051.9,87l30.61-2.68,16.58-39.2,4.21-.37,23.14,35.73,5.81-.51ZM1079,79.45l-19.09,1.67,14.31-33.82,0,0,19.09-1.67Z"/><path class="cls-4" d="M1078,87.68a23.5,23.5,0,1,1-20.28-24.25l2.07-4.9a28.27,28.27,0,0,0-7.77-.37,28.66,28.66,0,1,0,31.16,29.07Z"/><path class="cls-4" d="M1126.42,51.65a28.7,28.7,0,0,0-7.76,1.78l2.88,4.46a23.52,23.52,0,1,1-9.47,5.93l-2.86-4.42a28.66,28.66,0,1,0,17.21-7.75Z"/></g></g></g></svg>