<svg xmlns="http://www.w3.org/2000/svg" viewBox="0 0 1366 400"><defs><style>.cls-1{fill:#cc561e;}.cls-2{opacity:0.5;}.cls-3{fill:#fff2bd;}.cls-4,.cls-5,.cls-6{fill:none;stroke-miterlimit:10;}.cls-4{stroke:#aa2b1d;stroke-width:5px;}.cls-5{stroke:#ef8d32;}.cls-5,.cls-6{stroke-width:4px;}.cls-6{stroke:#fff2bd;}.cls-7{fill:#aa2b1d;}</style></defs><title>bg-header</title><g id="Livello_2" data-name="Livello 2"><g id="Livello_1-2" data-name="Livello 1"><rect class="cls-1" width="1366" height="400"/><g class="cls-2"><path class="cls-3" d="M1247.91,70.08l4.36-4.91,8.23,2.21a9.38,9.38,0,0,0,4.86-18.11l-6.06-1.62-1.61,6,6.06,1.62a3.16,3.16,0,0,1-1.64,6.11l-11.94-3.21-8.45,9.53-34.18-9.16-1.5-5.23,10.69,2.87,1.71-6.38-21.92-5.87h0l4.65,16.21-40.06,43.07,38.34,10.27,37.44-40.25,5.27,1.41,12.3,53.58,7.28,1.95Zm-50.63,36-23.91-6.41,32.31-34.73,0,0,23.9,6.41Z"/><path class="cls-3" d="M1192.48,115.64a30.36,30.36,0,1,1-20.22-40.87,30.89,30.89,0,0,1,6.32,2.48l4.68-5A37,37,0,1,0,1199,117.38Z"/><path class="cls-3" d="M1267.11,93.29A37,37,0,0,0,1256.9,92l1.53,6.69a29.86,29.86,0,0,1,7,1,30.37,30.37,0,1,1-21.06,2l-1.52-6.64a37,37,0,1,0,24.31-1.79Z"/></g><path class="cls-4" d="M87.92,58.32c61.71,23.51,161.72,55.88,244.55,53.19,293.68-9.55,365-55.44,589-54.2a907.12,907.12,0,0,1,192,21.62"/><path class="cls-5" d="M88.26,81.59c63.63,24.24,159.38,57.37,247.88,52.94,293.46-14.67,364-61.8,588-64.47a908.46,908.46,0,0,1,189.91,17.77"/><path class="cls-6" d="M89.11,110.74c64,23.13,160.18,54.76,248.59,48.79,293.17-19.79,362.89-68.14,586.79-74.72A908.66,908.66,0,0,1,1114,99.14"/><path class="cls-7" d="M1366,400H0V94s166,89.67,343,81.84c293.46-13,364-54.66,588-57,262-2.76,435,95.45,435,95.45Z"/></g></g></svg>