<svg xmlns="http://www.w3.org/2000/svg" viewBox="0 0 1367 150"><defs><style>.cls-1{fill:#cc561e;}.cls-2{opacity:0.5;}.cls-3{fill:#fff2bd;}.cls-4{fill:#aa2b1d;}</style></defs><title>header-low_2</title><g id="Livello_2" data-name="Livello 2"><g id="Livello_1-2" data-name="Livello 1"><rect class="cls-1" x="1" width="1366" height="150"/><g class="cls-2"><path class="cls-3" d="M1214.53,43.76l2.89-3.9,6.22,1.1a7,7,0,0,0,8-5.63,6.94,6.94,0,0,0-5.63-8l-4.57-.81-.8,4.53,4.57.81a2.34,2.34,0,0,1,.94,4.22,2.42,2.42,0,0,1-1.75.39l-9-1.59-5.61,7.57L1184,37.86l-1.44-3.76,8.07,1.42.85-4.81-16.55-2.92h0l4.48,11.65L1152.61,73.8l28.94,5.1,25-32.1,4,.7,12.53,38.73,5.5,1Zm-35,29.82-18-3.18L1183,42.7l0,0,18,3.18Z"/><path class="cls-3" d="M1176.58,81A22.48,22.48,0,1,1,1159,52.11a22,22,0,0,1,4.82,1.42l3.12-4a27.42,27.42,0,1,0,14.51,32.3Z"/><path class="cls-3" d="M1230.19,59.64a27.58,27.58,0,0,0-7.62-.27l1.57,4.83a22.24,22.24,0,0,1,5.19.3,22.48,22.48,0,1,1-15.41,2.83l-1.55-4.8a27.41,27.41,0,1,0,17.82-2.89Z"/></g><path class="cls-4" d="M1366,150H0V14s192.29,109.85,369,97C589,95,704,67,931,78.82,1192.66,92.45,1366,150,1366,150Z"/></g></g></svg>