<svg xmlns="http://www.w3.org/2000/svg" viewBox="0 0 1842.97 299.06"><defs><style>.cls-1{fill:#fff2bd;}</style></defs><title>logo-deliveboo</title><g id="Livello_2" data-name="Livello 2"><g id="Livello_1-2" data-name="Livello 1"><path class="cls-1" d="M0,299.06V0H73.75A150.18,150.18,0,0,1,180.06,43.45a147.47,147.47,0,0,1,44.05,105.66A148.7,148.7,0,0,1,180.05,255.2a149.58,149.58,0,0,1-106.3,43.86Zm18.43-18.43H73.75c72.52,0,131.52-59,131.52-131.52,0-72.05-59-130.68-131.52-130.68H18.43Z"/><path class="cls-1" d="M378.62,281.84a78.16,78.16,0,0,0,39.25-10.67L426.48,286a93.58,93.58,0,0,1-47.86,13.08c-57.85,0-96.41-45.45-96.41-94.34,0-57.85,45.79-96.41,94.68-96.41,46.14,0,80.23,28.92,91.94,66.45L299.42,204.38C299.42,244.66,331.1,281.84,378.62,281.84ZM444,161.68c-13.43-21.35-37.19-36.16-67.15-36.16a76.94,76.94,0,0,0-75.4,61.3Z"/><path class="cls-1" d="M640.76,46A16.53,16.53,0,1,1,624.24,62.5,16.76,16.76,0,0,1,640.76,46ZM632.5,299.06V108.31h17.21V299.06Z"/><path class="cls-1" d="M538.9,299.06V0h17.22V299.06Z"/><path class="cls-1" d="M802.5,258.43l71.62-153.22,15.49,7.23L802.5,299.06,715.39,112.44l15.49-7.23Z"/><path class="cls-1" d="M1025.28,281.84a78.16,78.16,0,0,0,39.25-10.67l8.61,14.81a93.55,93.55,0,0,1-47.86,13.08c-57.84,0-96.41-45.45-96.41-94.34,0-57.85,45.8-96.41,94.69-96.41,46.13,0,80.22,28.92,91.93,66.45l-169.4,29.62C946.09,244.66,977.77,281.84,1025.28,281.84Zm65.42-120.16c-13.43-21.35-37.19-36.16-67.14-36.16a76.94,76.94,0,0,0-75.41,61.3Z"/><path class="cls-1" d="M1249.45,299.06c-26.52,0-46.84-11.36-59.92-30.64v26.16h-17.21V0h17.21V138.27c12.4-17.91,32.37-30,62-30,48.89,0,94.35,38.56,94.35,96.41C1345.86,253.61,1307.29,299.06,1249.45,299.06Zm-59.92-46.14a77.08,77.08,0,0,0,60.26,28.92c47.17,0,78.85-37.18,78.85-77.46,0-47.18-37.19-78.86-77.48-78.86-26.16,0-47.85,11.71-61.63,28.93Z"/><path class="cls-1" d="M1684.37,63.41l7.57-15.13h22a24.14,24.14,0,0,0,0-48.28h-16.14V16h16.14a8.14,8.14,0,0,1,0,16.28h-31.85l-14.66,29.33h-91.14l-7.22-12h28.51v-17h-58.46l-.08,0,22.37,37.22L1490.42,203.7h102.22L1659,78.61h14l66.32,125.09h19.42Zm-102,123.29h-63.74l57.21-107.92.09-.17h63.74Z"/><path class="cls-1" d="M1576.85,213.7a78.22,78.22,0,1,1-60.18-86.24l8.28-15.63a95.37,95.37,0,1,0,69.2,101.87Z"/><path class="cls-1" d="M1747.6,108.34a95.48,95.48,0,0,0-26.24,3.66l8.27,15.6a78.28,78.28,0,1,1-33.09,16.91l-8.22-15.5a95.36,95.36,0,1,0,59.28-20.67Z"/><polygon class="cls-1" points="1576.16 102.22 1575.88 102.39 1575.97 102.22 1576.16 102.22"/></g></g></svg>