<svg xmlns="http://www.w3.org/2000/svg" viewBox="0 0 172 172"><defs><style>.cls-1{fill:#cc561e;}.cls-2,.cls-3{fill:#fff2bd;}.cls-2{stroke:#cc561e;stroke-miterlimit:10;stroke-width:0.5px;}.cls-3{font-size:15px;font-family:MyriadPro-Regular, Myriad Pro;}.cls-4{letter-spacing:0.36em;}.cls-5{letter-spacing:0.36em;}.cls-6{letter-spacing:0.37em;}.cls-7{letter-spacing:0.36em;}</style></defs><title>american-icon</title><g id="Livello_2" data-name="Livello 2"><g id="Livello_1-2" data-name="Livello 1"><rect class="cls-1" width="172" height="172" rx="12"/><path class="cls-2" d="M74.46,112.67c.21-1.22.39-2.3.58-3.38a80.67,80.67,0,0,0,1.1-11.82,90.06,90.06,0,0,0-.94-14.39A31.52,31.52,0,0,1,75,79.31a1.61,1.61,0,0,1,.3-.83c1.39-2,2.8-4,4.21-6a26.34,26.34,0,0,0,3.17-5.59,15.59,15.59,0,0,0,.91-6c0-.64,0-1.28-.1-1.92,0-.17-.16-.32-.24-.48-.13.14-.32.25-.38.41-.88,2.26-1.66,4.57-2.62,6.79a13.12,13.12,0,0,1-3.17,4.88,12.18,12.18,0,0,1-1.11.77c-1.13-1.15-1.28-2-.41-3.21a18.69,18.69,0,0,0,2.11-3.59A28.42,28.42,0,0,0,79.64,59a3,3,0,0,0,0-.9c0-.17-.17-.31-.27-.47-.13.1-.31.16-.4.29-.68,1-1.32,2.1-2,3.13-.32.48-.71.92-1.06,1.37a2.39,2.39,0,0,1-.42-3.18c1.1-1.61,2.19-3.23,3.21-4.89a4.27,4.27,0,0,0,.56-3.48,2.07,2.07,0,0,0-.33-.52,4.26,4.26,0,0,0-.49.34c-.89.84-1.75,1.71-2.67,2.51a1,1,0,0,1-1.33.17c-.57-.48-1.23-1-.88-1.93a38.34,38.34,0,0,1,1.66-3.65c.07.43.13.87.21,1.3.14.8.72,1.32,1.53.56A7.91,7.91,0,0,0,79.84,44s0-.06.09-.14l1.34,2.27a3.73,3.73,0,0,1,.47,2,3.17,3.17,0,0,0,2.35,3.29.58.58,0,0,1,.34.33,3.25,3.25,0,0,0,3.07,2.58.77.77,0,0,1,.47.3c.4.54.78,1.1,1.13,1.67.83,1.32,1.62,2.68,2.48,4a19.51,19.51,0,0,1,2.73,7.32,45.37,45.37,0,0,1,.5,11.1c-.24,4.4-.56,8.8-.83,13.2-.07,1.11-.11,2.23-.19,3.35a.77.77,0,0,1-.24.53,15.73,15.73,0,0,0-3.69,3.5,1.08,1.08,0,0,0-.12.24l-.2-.09c0-.61,0-1.22,0-1.83-.28-6.11-.52-12.21-.87-18.32-.13-2.22-.54-4.43-.84-6.65a3,3,0,0,0-.23-.81c0-.14-.2-.24-.31-.36-.1.14-.27.28-.28.43-.05.58,0,1.17-.05,1.76-.18,5-.28,10-.57,15a97.78,97.78,0,0,1-2,15c-.26,1.19-.55,2.38-.89,3.56a1.52,1.52,0,0,1-.61.85c-1.86,1.1-3.75,2.17-5.64,3.21C76.37,111.78,75.46,112.18,74.46,112.67Z"/><path class="cls-2" d="M72.77,116.44c.61-1.09,1.16-2.08,1.73-3.06a.88.88,0,0,1,.42-.3,71.07,71.07,0,0,0,10.86-6.19,63.73,63.73,0,0,0,6.64-5.3c.1-.1.23-.31.19-.39a.61.61,0,0,0-.39-.26c-.82-.16-1.63-.29-2.52-.44a15.44,15.44,0,0,1,4.08-4.14c0,1,0,2,0,2.9,0,1.65.13,3.3.23,4.95a3.71,3.71,0,0,0,.31,1.23,1.37,1.37,0,0,0,2.35.44,8.42,8.42,0,0,0,.61-.73c.59,3.51,1.17,7,1.78,10.65-1.86.52-3.76,1.11-5.69,1.56a41.08,41.08,0,0,1-11.06,1,32.12,32.12,0,0,1-7.68-1.08A14.38,14.38,0,0,1,72.77,116.44Z"/><path class="cls-2" d="M65.39,125.63v-5.34h41.12v5.34Z"/><path class="cls-2" d="M95.52,75.06c.66.64,1.3,1.29,2,1.9.31.28.71.45,1,.71a.82.82,0,0,1,.34.45c.37,3.34.74,6.67,1.09,10,.18,1.82.3,3.65.47,5.47a1.52,1.52,0,0,1-.63,1.47c-1,.74-1,1.34-.34,2.33a2.9,2.9,0,0,1,.47.76,1.51,1.51,0,0,1,0,1c-1.11,2-2.27,4-3.42,6a1,1,0,0,1-1,.61.91.91,0,0,1-.76-.85,27.58,27.58,0,0,1-.31-2.85,126,126,0,0,1,.38-14.54c.29-4.1.46-8.2.68-12.29C95.51,75.15,95.51,75.09,95.52,75.06Z"/><path class="cls-2" d="M99.44,114.18c1.15,0,2.25,0,3.35,0a.42.42,0,0,1,.3.17c1,1.72,2.09,3.45,3.18,5.26H65.63l.74-1.23c.78-1.29,1.55-2.59,2.34-3.87a.73.73,0,0,1,.46-.33c1.37,0,2.74,0,4.22,0-.37.63-.66,1.2-1,1.74s-.28.67.17,1a9.75,9.75,0,0,0,4.14,1.43,43.14,43.14,0,0,0,14.16.12,41.05,41.05,0,0,0,8.43-2.21c.42-.16.56-.34.42-.78A12.12,12.12,0,0,1,99.44,114.18Z"/><path class="cls-2" d="M104.37,67.49c-.2-.1-.33-.18-.48-.24a.75.75,0,0,0-1.06.77,4.72,4.72,0,0,0,.07.85,3.93,3.93,0,0,1-.53,2.65c-.84,1.58-1.62,3.19-2.43,4.79a1.1,1.1,0,0,1-2,.34c-.52-.53-1-1.06-1.58-1.58a1.17,1.17,0,0,1-.32-1.35,71.94,71.94,0,0,1,4.53-10.43c.51-1,1.06-1.1,2-.52.71.43,1.43.85,2.15,1.26a1.08,1.08,0,0,1,.54,1.59C105,66.23,104.7,66.83,104.37,67.49Z"/><path class="cls-2" d="M87.65,74.71c.12,1.06.27,2.11.35,3.17.57,7.28.92,14.57,1,21.87,0,.39-.12.92.09,1.14s.75.22,1.15.3.9.16,1.36.24a46.25,46.25,0,0,1-7.46,5.78C86.9,96.53,87.35,85.63,87.65,74.71Z"/><path class="cls-2" d="M76.11,49.47a133.88,133.88,0,0,1-1.94-18.66c.85-.19,1.1-.49,1.17-1.39,0-.62.08-1.24.13-1.94.34.5.5,1.16,1.3,1a3.14,3.14,0,0,1,0,.39,19.3,19.3,0,0,0,.59,5.91C78,37.36,78.45,40,79.06,42.6c.55,2.39-.34,4.27-1.87,6a7.94,7.94,0,0,1-.73.69A1.93,1.93,0,0,1,76.11,49.47Z"/><path class="cls-2" d="M90.09,57a6.09,6.09,0,0,1,3.28-.86c.14,0,.27.14.42.21,1.85.81,2.15,2.51,2.43,4.24.41,2.52.85,5,1.27,7.55a.77.77,0,0,1,0,.37c-.64,1.62-1.3,3.24-2,4.93a39.33,39.33,0,0,0-1.28-8.74C93.44,61.84,91.71,59.47,90.09,57Z"/><path class="cls-2" d="M86.65,44c.71.67,1.43,1.35,2.16,2a4.29,4.29,0,0,0,1,.76.81.81,0,0,1,.48,1A3.65,3.65,0,0,1,89,50.28a2.5,2.5,0,0,1-2.61.31,3.51,3.51,0,0,1-2.29-3.18.7.7,0,0,1,.13-.47c.43-.47.92-.88,1.32-1.37S86.27,44.53,86.65,44Z"/><path class="cls-2" d="M76.38,71.77a9,9,0,0,0,3.41-3.83,42.4,42.4,0,0,0,3-6.76,1.23,1.23,0,0,1,.21-.41,13.64,13.64,0,0,1-.77,5.84,29.82,29.82,0,0,1-4.21,7c-.83,1.13-1.65,2.26-2.58,3.34.32-.6.62-1.21,1-1.8a2.77,2.77,0,0,0,.52-2.3A7.08,7.08,0,0,0,76.38,71.77Z"/><path class="cls-2" d="M82.54,43.68c-.66-.92-.63-1.4.18-2.12,2-1.74,5.9-2.49,8.51-.14.91.83,1,1.51.4,2.4A7.27,7.27,0,0,0,82.54,43.68Z"/><path class="cls-2" d="M103.37,67.71c.86.21,1.76,1.41,2.22-.22,0,0,.12,0,.12,0,.31.7.63,1.39.89,2.11,0,.11-.13.37-.27.47a4.85,4.85,0,0,0-2.1,3.72l-2.45.2c.14-.3.27-.55.38-.81s.26-.45.63-.38a.66.66,0,0,0,.81-.6,6.84,6.84,0,0,0,.05-1.57C103.59,69.68,103.48,68.76,103.37,67.71Z"/><path class="cls-2" d="M71.48,25.71a16.08,16.08,0,0,1,.45-1.65.74.74,0,0,1,1.35-.18,23.21,23.21,0,0,1,1.38,2,1.33,1.33,0,0,1-.46,2c-1.34.81-2,.8-2.53-.92A12.31,12.31,0,0,1,71.48,25.71Z"/><path class="cls-2" d="M74.49,14.2l-.79,1.38-.31-.64L73,17a.84.84,0,0,1-.31-1.12.94.94,0,0,0,.06-1.06c-.23-.64-.54-1.25-.87-2l.76.67a17.68,17.68,0,0,1,.44-2.07,18.34,18.34,0,0,1,1-2v2.73l.41-.63L74.77,13l.73-1.22c.55,1.37.11,2.57-.46,3.88l.45-.29.11.06-.49.87-.38-.52-.18,0,.31-2-.1-.06-.29.44Z"/><path class="cls-2" d="M85.13,50.56a3.55,3.55,0,0,0,4.21.23l.56,2.77a19.81,19.81,0,0,1-2.86.11A2.52,2.52,0,0,1,85,51.42,3.31,3.31,0,0,1,85.13,50.56Z"/><path class="cls-2" d="M101.58,74.71c.15,1.48.31,3,.42,4.44,0,.78-.09.89-.86,1s-.62.06-1.32.83c-.13-1-.26-2.06-.38-3.07,0-.09,0-.25.08-.28.94-.48,1.1-1.49,1.57-2.28a6.48,6.48,0,0,0,.34-.64Z"/><path class="cls-2" d="M75,54.06c1.75-.32,2.62-1.73,3.75-2.8l.17.06a5.37,5.37,0,0,1-.23,1.57c-.58,1.2-1.28,2.35-2,3.52a10.66,10.66,0,0,1-.89,1.26A6,6,0,0,0,75,54.06Z"/><path class="cls-2" d="M90.91,48.1a24.37,24.37,0,0,0,1.8,6.28c-.7-.21-1.37-.41-2-.63a.46.46,0,0,1-.2-.32c-.21-1-.4-2-.59-2.92a.7.7,0,0,1,.06-.35Z"/><path class="cls-2" d="M75.91,18.89l.9,1.45a11.8,11.8,0,0,1-5.32,0c.38-.57.7-1.07,1.05-1.54.07-.09.3-.09.46-.08Z"/><path class="cls-2" d="M88.42,54.12c1.67.12,3.23.16,4.51,1.3l-3.11.92Z"/><path class="cls-2" d="M74.47,14.22c.06.07.17.15.16.21,0,.35-.16.69-.19,1s-.31.63.31.66c.22,0,.42.37.61.56l-.61,1.54c-1.33.22-1.72,0-1.94-1.07.59-.38.49-1,.67-1.61l.28.72.73-2.07Z"/><path class="cls-2" d="M87.24,43.61c1.28.34,2.66.55,3.48,1.77a3.31,3.31,0,0,1,.43,1.34C89.45,46.16,88.48,44.73,87.24,43.61Z"/><path class="cls-2" d="M76.37,21.11a1.85,1.85,0,0,1-2.1,1.24c-1.08,0-2.08-.2-2.58-1.24Z"/><path class="cls-2" d="M79.08,59.28c-.54,1.51-1.08,3-1.64,4.57l-1-1.06,2.44-3.61Z"/><path class="cls-2" d="M83,44.82l-.21-.53a6.61,6.61,0,0,1,7.55-.64,3.22,3.22,0,0,1,.69.58c.09.09.09.26.17.54A8,8,0,0,0,87,43C85.38,42.88,84.24,43.94,83,44.82Z"/><path class="cls-2" d="M86,43.8a7.49,7.49,0,0,1-2.71,3.09c-.36-.92-.18-1.49.77-2.15.57-.4,1.22-.71,1.83-1.06Z"/><path class="cls-2" d="M83.5,47.55a4.78,4.78,0,0,0,.92,2.33c.17.21.1.6.14.91A1.33,1.33,0,0,1,83,49.41c0-.42,0-.85,0-1.27a2.91,2.91,0,0,1,.28-.66Z"/><path class="cls-2" d="M98,67.41,97.22,63c.49.73,1,1.5,1.54,2.29a.31.31,0,0,1,0,.28C98.55,66.14,98.29,66.7,98,67.41Z"/><path class="cls-2" d="M75.85,23.68c.32,1.28.62,2.46.88,3.64,0,.16-.13.36-.2.54a2.18,2.18,0,0,1-.35-.4c-.2-.35-.37-.71-.55-1.07a.45.45,0,0,1-.07-.18c0-.77.06-1.53.1-2.29C75.67,23.87,75.74,23.81,75.85,23.68Z"/><path class="cls-2" d="M75,22.93V25.3l-1.7-2.37Z"/><path class="cls-2" d="M87.51,35.89,88,39.36h-.84l.26-3.49Z"/><path class="cls-2" d="M81.33,37.74l2.23,2.54-.54.31-1.86-2.7Z"/><path class="cls-2" d="M90.14,40l2.35-2.24.1.08-1.74,2.57Z"/><path class="cls-2" d="M73.84,28.78l1-.55c0,.59-.08,1.11-.16,1.62,0,.11-.21.24-.33.26s-.25-.13-.28-.24C74,29.52,73.91,29.15,73.84,28.78Z"/><path class="cls-2" d="M81.49,42.78l-1.94-.5,0-.18h2Z"/><path class="cls-2" d="M92.66,42.68l-.19-.6h2.27v.08Z"/><text class="cls-3" transform="translate(30.12 150.92)"><tspan class="cls-4">A</tspan><tspan class="cls-5" x="14.59" y="0">me</tspan><tspan class="cls-6" x="45.52" y="0">r</tspan><tspan class="cls-7" x="55.93" y="0">ican</tspan><tspan x="103.53" y="0">o</tspan></text></g></g></svg>