<svg xmlns="http://www.w3.org/2000/svg" viewBox="0 0 172 172"><defs><style>.cls-1{fill:#aa2b1d;}.cls-2{font-size:15px;font-family:MyriadPro-Regular, Myriad Pro;}.cls-2,.cls-5{fill:#fff2bd;}.cls-3{letter-spacing:0.5em;}.cls-4{letter-spacing:0.51em;}</style></defs><title>breakfast-icon</title><g id="Livello_2" data-name="Livello 2"><g id="Livello_1-2" data-name="Livello 1"><rect class="cls-1" width="172" height="172" rx="12"/><text class="cls-2" transform="translate(24.56 154.65)"><tspan class="cls-3">C</tspan><tspan class="cls-4" x="16.2" y="0">olazion</tspan><tspan x="115.37" y="0">e</tspan></text><path class="cls-5" d="M96.11,108.13H110a15.87,15.87,0,0,0,2-.12,15.4,15.4,0,0,0,13.32-13.54c.21-1.91.36-3.83.47-5.76q.36-6.15.65-12.32c0-1.11-.43-1.55-1.56-1.55H85.24c-1,0-1.27.26-1.22,1.22.23,4.44.46,8.89.72,13.33a1.16,1.16,0,0,0,.43.76,4.23,4.23,0,0,1,1.91,2.4c0,.16.26.3.43.39a28.86,28.86,0,0,1,8.95,7.53,5.12,5.12,0,0,1,1,4.92A20.16,20.16,0,0,1,96.11,108.13Zm-9.4-47.74H60.23V83l.42-.08a23.71,23.71,0,0,1,11.26.42,3.88,3.88,0,0,1,2.94,2.27c.05.15.34.25.54.31,1.62.55,3.27,1,4.88,1.63.83.3,1.62.72,2.46,1.09v-.48c-.21-4-.44-8-.61-12-.08-2.06,1-3.16,3.1-3.17h1.49ZM78.24,110H32.68c-.78,0-.81,0-.81.83,0,.45,0,.9,0,1.35a3,3,0,0,0,3.31,3.29c2.87,0,5.73,0,8.59,0h74.63c1,0,2,0,3.08,0a2.93,2.93,0,0,0,3.1-3.09c0-.49,0-1,0-1.46,0-.92,0-.92-.94-.92Zm-5.82-1.91.16-.49A47,47,0,0,0,74,96.19a50.74,50.74,0,0,0-.69-9,2.11,2.11,0,0,0-1.71-1.94l-.27-.08a21.37,21.37,0,0,0-7.55-.72,16.2,16.2,0,0,0-4.76,1,1.75,1.75,0,0,0-1.24,1.5c-.24,2.06-.58,4.11-.71,6.18a48.37,48.37,0,0,0,1.3,14.53.61.61,0,0,0,.71.56q6.41,0,12.8,0Zm14.3-49.74c0-.19,0-.34,0-.48V49.31c0-.75-.17-.91-.93-.91H66.45c0-.2-.1-.36-.13-.52-.69-3.64-1.39-7.27-2.07-10.91a1.89,1.89,0,0,0-1-1.45C59,33.25,54.69,31,50.41,28.72a2.09,2.09,0,0,0-1.13-.2,1.6,1.6,0,0,0-1.41,1.39,1.73,1.73,0,0,0,1,1.88c3.83,2,7.65,4.08,11.49,6.09a1.31,1.31,0,0,1,.75,1c.38,2.12.8,4.22,1.2,6.34.2,1,.39,2.07.6,3.18H61.16c-.82,0-1,.15-1,1q0,4.13,0,8.25v.74Zm-12.3,49.74H75c2.69,0,5.38,0,8.08,0a.67.67,0,0,0,.75-.54,30.31,30.31,0,0,0,1.46-14,2.42,2.42,0,0,0-1.14-1.86,27.89,27.89,0,0,0-6.84-3.31c-.63-.22-1.27-.39-2-.61A55,55,0,0,1,74.42,108.12ZM55.56,88.05c-.46.13-.84.23-1.22.35a26.4,26.4,0,0,0-7.54,3.49,2,2,0,0,0-.93,1.62,40,40,0,0,0-.13,7,24.67,24.67,0,0,0,1.56,7.15.62.62,0,0,0,.7.47c1.42,0,2.84,0,4.26,0h4.26A54.39,54.39,0,0,1,55.56,88.05ZM128,82.31c.4-.21.67-.37,1-.5a18.18,18.18,0,0,1,2.39-1.07A3.75,3.75,0,0,1,136.31,83,6.34,6.34,0,0,1,136.5,87c-1.23,4.29-4.23,6.74-8.41,7.89-1,.26-1,.22-1.17,1.21-.17.81-.39,1.61-.6,2.44.16,0,.27,0,.37,0a14.55,14.55,0,0,0,10.59-5.6A11.5,11.5,0,0,0,140.06,84a7.8,7.8,0,0,0-3-5.57c-2.55-1.93-6-1.62-8.61-.3a.41.41,0,0,0-.21.29C128.17,79.69,128.11,80.92,128,82.31Zm-10.22-37a11.22,11.22,0,0,0-3.56-7.68,1.67,1.67,0,0,0-2.37,0,1.71,1.71,0,0,0-.08,2.38c.2.24.42.47.63.72,1.46,1.76,2.34,3.74,1.76,6a15.16,15.16,0,0,1-1.44,3.31,24.53,24.53,0,0,0-2.39,5.3,7.54,7.54,0,0,0,2.25,8,1.72,1.72,0,1,0,2.4-2.47l-.32-.32a4,4,0,0,1-1.06-4,19.33,19.33,0,0,1,2.45-5.32A11.74,11.74,0,0,0,117.82,45.28Zm-16,0a11.06,11.06,0,0,0-3.62-7.68,2,2,0,0,0-1.28-.41,1.49,1.49,0,0,0-1.44,1.06,1.69,1.69,0,0,0,.41,1.86,8.43,8.43,0,0,1,2.4,4.41,7.75,7.75,0,0,1-1.37,5.36,19.42,19.42,0,0,0-2.73,6.3,7.33,7.33,0,0,0,2.45,7.17,2.26,2.26,0,0,0,1.25.5,1.51,1.51,0,0,0,1.55-1.07A1.68,1.68,0,0,0,99,60.81a4,4,0,0,1-1.21-4.62,34.33,34.33,0,0,1,2.15-4.6A12.89,12.89,0,0,0,101.83,45.25Zm-16,62.54H92a3.43,3.43,0,0,0,.56,0,3.88,3.88,0,0,0,2.49-6,26.69,26.69,0,0,0-7.2-6.44c-.13-.08-.28-.14-.48-.24A31,31,0,0,1,85.8,107.79Zm-40.47.06a31.42,31.42,0,0,1-1.55-12.44c-.72.48-1.34.87-1.93,1.28a26.42,26.42,0,0,0-5.68,5,3.86,3.86,0,0,0,2.9,6.13c1,0,2,0,2.92.06S44.18,107.85,45.33,107.85Z"/><path class="cls-5" d="M96.11,108.13a20.16,20.16,0,0,0,1.3-2.75,5.12,5.12,0,0,0-1-4.92,28.86,28.86,0,0,0-8.95-7.53c-.17-.09-.4-.23-.43-.39a4.23,4.23,0,0,0-1.91-2.4,1.16,1.16,0,0,1-.43-.76c-.26-4.44-.49-8.89-.72-13.33,0-1,.25-1.22,1.22-1.22H124.8c1.13,0,1.61.44,1.56,1.55q-.3,6.16-.65,12.32c-.11,1.93-.26,3.85-.47,5.76A15.4,15.4,0,0,1,111.92,108a15.87,15.87,0,0,1-2,.12H96.11Z"/><path class="cls-5" d="M86.71,60.39V72.92H85.22c-2,0-3.18,1.11-3.1,3.17.17,4,.4,8,.61,12v.48c-.84-.37-1.63-.79-2.46-1.09C78.66,87,77,86.45,75.39,85.9c-.2-.06-.49-.16-.54-.31a3.88,3.88,0,0,0-2.94-2.27,23.71,23.71,0,0,0-11.26-.42l-.42.08V60.39Z"/><path class="cls-5" d="M78.24,110h45.4c.94,0,.94,0,.94.92,0,.49,0,1,0,1.46a2.93,2.93,0,0,1-3.1,3.09c-1,0-2,0-3.08,0H43.76c-2.86,0-5.72,0-8.59,0a3,3,0,0,1-3.31-3.29c0-.45,0-.9,0-1.35,0-.8,0-.83.81-.83H78.24Z"/><path class="cls-5" d="M72.42,108.12h-.57q-6.41,0-12.8,0a.61.61,0,0,1-.71-.56A48.37,48.37,0,0,1,57,93.05c.13-2.07.47-4.12.71-6.18A1.75,1.75,0,0,1,59,85.37a16.2,16.2,0,0,1,4.76-1,21.37,21.37,0,0,1,7.55.72l.27.08a2.11,2.11,0,0,1,1.71,1.94,50.74,50.74,0,0,1,.69,9,47,47,0,0,1-1.39,11.44Z"/><path class="cls-5" d="M86.72,58.38H60.19v-.74q0-4.12,0-8.25c0-.84.14-1,1-1h1.76c-.21-1.11-.4-2.15-.6-3.18-.4-2.12-.82-4.22-1.2-6.34a1.31,1.31,0,0,0-.75-1c-3.84-2-7.66-4.05-11.49-6.09a1.73,1.73,0,0,1-1-1.88,1.6,1.6,0,0,1,1.41-1.39,2.09,2.09,0,0,1,1.13.2C54.69,31,59,33.25,63.23,35.52a1.89,1.89,0,0,1,1,1.45c.68,3.64,1.38,7.27,2.07,10.91,0,.16.08.32.13.52H85.81c.76,0,.93.16.93.91V57.9C86.74,58,86.73,58.19,86.72,58.38Z"/><path class="cls-5" d="M74.42,108.12a55,55,0,0,0,.94-20.29c.7.22,1.34.39,2,.61a27.89,27.89,0,0,1,6.84,3.31,2.42,2.42,0,0,1,1.14,1.86,30.31,30.31,0,0,1-1.46,14,.67.67,0,0,1-.75.54c-2.7,0-5.39,0-8.08,0Z"/><path class="cls-5" d="M55.56,88.05a54.39,54.39,0,0,0,1,20.07H52.26c-1.42,0-2.84,0-4.26,0a.62.62,0,0,1-.7-.47,24.67,24.67,0,0,1-1.56-7.15,40,40,0,0,1,.13-7,2,2,0,0,1,.93-1.62,26.4,26.4,0,0,1,7.54-3.49C54.72,88.28,55.1,88.18,55.56,88.05Z"/><path class="cls-5" d="M128,82.31c.07-1.39.13-2.62.21-3.85a.41.41,0,0,1,.21-.29c2.6-1.32,6.06-1.63,8.61.3a7.8,7.8,0,0,1,3,5.57,11.5,11.5,0,0,1-2.78,8.85,14.55,14.55,0,0,1-10.59,5.6c-.1,0-.21,0-.37,0,.21-.83.43-1.63.6-2.44.21-1,.2-1,1.17-1.21,4.18-1.15,7.18-3.6,8.41-7.89a6.34,6.34,0,0,0-.19-3.92,3.75,3.75,0,0,0-4.93-2.29A18.18,18.18,0,0,0,129,81.81C128.71,81.94,128.44,82.1,128,82.31Z"/><path class="cls-5" d="M117.82,45.28a11.74,11.74,0,0,1-1.73,6,19.33,19.33,0,0,0-2.45,5.32,4,4,0,0,0,1.06,4l.32.32a1.72,1.72,0,1,1-2.4,2.47,7.54,7.54,0,0,1-2.25-8,24.53,24.53,0,0,1,2.39-5.3,15.16,15.16,0,0,0,1.44-3.31c.58-2.31-.3-4.29-1.76-6-.21-.25-.43-.48-.63-.72a1.71,1.71,0,0,1,.08-2.38,1.67,1.67,0,0,1,2.37,0A11.22,11.22,0,0,1,117.82,45.28Z"/><path class="cls-5" d="M101.83,45.25a12.89,12.89,0,0,1-1.91,6.34,34.33,34.33,0,0,0-2.15,4.6A4,4,0,0,0,99,60.81a1.68,1.68,0,0,1,.47,1.94,1.51,1.51,0,0,1-1.55,1.07,2.26,2.26,0,0,1-1.25-.5,7.33,7.33,0,0,1-2.45-7.17,19.42,19.42,0,0,1,2.73-6.3,7.75,7.75,0,0,0,1.37-5.36,8.43,8.43,0,0,0-2.4-4.41,1.69,1.69,0,0,1-.41-1.86,1.49,1.49,0,0,1,1.44-1.06,2,2,0,0,1,1.28.41A11.06,11.06,0,0,1,101.83,45.25Z"/><path class="cls-5" d="M85.8,107.79a31,31,0,0,0,1.57-12.72c.2.1.35.16.48.24a26.69,26.69,0,0,1,7.2,6.44,3.88,3.88,0,0,1-2.49,6,3.43,3.43,0,0,1-.56,0Z"/><path class="cls-5" d="M45.33,107.85c-1.15,0-2.25,0-3.34,0s-2,0-2.92-.06a3.86,3.86,0,0,1-2.9-6.13,26.42,26.42,0,0,1,5.68-5c.59-.41,1.21-.8,1.93-1.28A31.42,31.42,0,0,0,45.33,107.85Z"/></g></g></svg>