<svg xmlns="http://www.w3.org/2000/svg" viewBox="0 0 172 172"><defs><style>.cls-1{fill:#cc561e;}.cls-2,.cls-3{fill:#fff2bd;}.cls-3{font-size:15px;font-family:MyriadPro-Regular, Myriad Pro;}.cls-4{letter-spacing:0.61em;}.cls-5{letter-spacing:0.61em;}</style></defs><title>chinese-icon</title><g id="Livello_2" data-name="Livello 2"><g id="Livello_1-2" data-name="Livello 1"><rect class="cls-1" width="172" height="172" rx="12"/><path class="cls-2" d="M77.89,28.15a8.22,8.22,0,0,1,.16,2.13c-.84,4.39,1.2,6.63,5.21,8.06,6.54,2.33,12.95,5,19.77,7.74V40.13h3.66l.37,3h2.85l.29-2.92h3.49l.36,2.93h2.81l.33-3h3.47l.27,3h2.77l.46-3.07h3.45c0,1.77,0,3.52,0,5.27q0,14.52,0,29c0,1.62.47,3.57-2.54,2.88,1.57,10-4.82,15.56-11.3,20.22A93.25,93.25,0,0,0,94.29,117a4,4,0,0,1-2.49,1.6c-7,.12-14,.07-21.3.07a21.23,21.23,0,0,1,.85-2c4.87-9,12.06-16,20.2-22,5.27-3.87,10.7-7.53,16.19-11.06,6.94-4.46,10.15-11,11.59-19.32-2,0-3.86-.11-5.67.07a2.42,2.42,0,0,0-1.52,1.44A35.86,35.86,0,0,1,93.53,86.32c-4,2-7.77,4.47-11.85,6.29-8.55,3.81-15,10-20.38,17.4-1.68,2.32-3.21,4.75-4.95,7a10.88,10.88,0,0,1-2.45,1.83l-.61-.62c1-1.43,1.82-2.93,2.87-4.29,2.83-3.69,5.72-7.34,8.63-11,5.56-7,13.54-10.38,21.08-14.48,4.71-2.56,9.35-5.28,13.88-8.14a21.19,21.19,0,0,0,7.89-9.64C101.9,79.65,92.28,83,83.39,87,69,93.46,58.58,104.06,49.55,116.42c-1.35,1.86-2.65,2.64-5.2,1.88,2.33-3.15,4.52-6.17,6.76-9.14,8.38-11.09,18.56-19.74,31.74-24.8,4.7-1.8,9.06-4.66,13.31-7.43s4.9-5.23,2.61-9.6a19.38,19.38,0,0,0-6.29-7C86.18,56.25,79.44,52.85,73,49a79.37,79.37,0,0,1-6.35-4.88,3.87,3.87,0,0,0-2-.9c-4.62-.08-9.23,0-14,0,2.92-4.29,7.8-5.78,12.71-7.19V28.15Zm-8,9.36c1.76,1.49,3.31,3.37,5.3,4.4,9.07,4.7,19.41,6.72,27.63,13.49.82-5.81.83-5.82-3.93-8-1.22-.55-2.46-1.06-3.69-1.59-5.91-2.52-12-4.79-17.68-7.67A9.22,9.22,0,0,0,69.86,37.51Zm48.36,23.67c0-2,.31-4-.12-5.73-.27-1.11-1.77-2.82-2.52-2.72a4.4,4.4,0,0,0-3,2.59c-.51,1.78-.14,3.81-.14,5.86ZM74.1,35.46c-.58-1.27-1-2.19-1.47-3,0-.05-1.24.31-1.42.7A7.5,7.5,0,0,0,71,35.46Z"/><text class="cls-3" transform="translate(42.24 156.15)"><tspan class="cls-4">C</tspan><tspan class="cls-5" x="17.87" y="0">ines</tspan><tspan x="80.01" y="0">e</tspan></text></g></g></svg>