<svg xmlns="http://www.w3.org/2000/svg" viewBox="0 0 172 172"><defs><style>.cls-1{fill:#cc561e;}.cls-2{font-size:15px;font-family:MyriadPro-Regular, Myriad Pro;}.cls-2,.cls-7{fill:#fff2bd;}.cls-3{letter-spacing:0.57em;}.cls-4{letter-spacing:0.61em;}.cls-5{letter-spacing:0.58em;}.cls-6{letter-spacing:0.61em;}</style></defs><title>fastfood-icon</title><g id="Livello_2" data-name="Livello 2"><g id="Livello_1-2" data-name="Livello 1"><rect class="cls-1" width="172" height="172" rx="12"/><text class="cls-2" transform="translate(25.53 153.65)"><tspan class="cls-3">F</tspan><tspan class="cls-4" x="15.83" y="0">ast</tspan><tspan class="cls-5" x="61.57" y="0">F</tspan><tspan class="cls-6" x="77.61" y="0">oo</tspan><tspan x="112.48" y="0">d</tspan></text><path class="cls-7" d="M62.79,57.68h48.69c0,.51-.08,1-.12,1.48L110.22,74q-.68,8.52-1.36,17l-.81,10.61c-.47,6.06-.92,12.12-1.45,18.18a4.46,4.46,0,0,1-.88,2,2.12,2.12,0,0,1-1.9.76H70.7a2.71,2.71,0,0,1-3-2.6c-.2-2-.34-4.09-.5-6.14q-.81-10.1-1.6-20.2c-.36-4.64-.7-9.29-1.07-13.94Q64,73,63.42,66.4q-.33-4.14-.64-8.28C62.77,58,62.79,57.85,62.79,57.68Z"/><path class="cls-7" d="M110.08,92.74c1.38.39,2.67.89,4,1.13a12.3,12.3,0,0,0,9.28-1.94,34.37,34.37,0,0,0,7.37-6.32c.61-.72,1.11-1.52,1.7-2.34l-.09,1.21-2.22,23.2c-.16,1.67-.31,3.33-.49,5a3.08,3.08,0,0,1-3.07,2.73c-6,0-12,0-18,0a1.49,1.49,0,0,1-.23-.06C108.9,107.81,109.5,100.24,110.08,92.74Z"/><path class="cls-7" d="M87.1,56.38H61.73c-1,0-1.06,0-.89-1s.37-2.16.58-3.24c.14-.76.32-.89,1.14-.89h48.9c1.13,0,1.2,0,1.39,1.1s.37,2,.55,3.06.11.94-.87,1H87.1Z"/><path class="cls-7" d="M65.13,105.88l-.59,0c-7,0-14,0-20.94,0a3.05,3.05,0,0,1-3.38-2.81c-.08-1.25-.39-2.48-.5-3.73a6.15,6.15,0,0,1,.21-1.57c1.24,0,2.28.12,3.32.12H63.57c1.14,0,1-.13,1.06.93.16,2.13.34,4.25.5,6.38C65.15,105.46,65.13,105.66,65.13,105.88Z"/><path class="cls-7" d="M62,64.77c.16,2.07.32,4.11.47,6.08-.35.09-.87.1-.93.26a2.09,2.09,0,0,0,.06,1.13,1.18,1.18,0,0,0,.45.63,1.82,1.82,0,0,1,.72,1.67c0,1,.15,2.1.24,3.2-.27,0-.5,0-.72,0H40.43c-1.32,0-1.54-.35-1-1.5a18,18,0,0,1,9.38-8.46,41.44,41.44,0,0,1,12.83-3.07A1.07,1.07,0,0,1,62,64.77ZM43.39,74.24a8.68,8.68,0,0,0-1.57.63.48.48,0,0,0,.16.93,3.29,3.29,0,0,0,1.59,0,5.06,5.06,0,0,0,1.2-.85Zm10.89.67a9.68,9.68,0,0,0-1.55.52.82.82,0,0,0-.38.66c0,.17.36.44.56.44a4.17,4.17,0,0,0,1.58-.2c.4-.15.68-.56,1-.85ZM53.9,73a3.06,3.06,0,0,0,2.21-1,.79.79,0,0,0,.11-.7.86.86,0,0,0-.68-.28,2.63,2.63,0,0,0-2,1.29c-.09.13-.17.38-.1.48S53.78,73,53.9,73Zm3.73-3.86a1.86,1.86,0,0,0,.44.58.84.84,0,0,0,.67-.16,2.6,2.6,0,0,0,.77-2.34c-.11-.36-.33-.47-.64-.24A2.93,2.93,0,0,0,57.63,69.16Zm-9.25,6.37a2.67,2.67,0,0,0,2-1.88.53.53,0,0,0-.35-.36,2.7,2.7,0,0,0-2.29,1.5A.55.55,0,0,0,48.38,75.53Zm10.07-1.31-.07.13a5.07,5.07,0,0,0-.56.05c-.42.1-.53.34-.25.65a2.68,2.68,0,0,0,2.23,1c.23,0,.59-.18.64-.34a.76.76,0,0,0-.23-.71A17.52,17.52,0,0,0,58.45,74.22ZM49.8,71.75c.48,0,.7-.34.54-.84a2.79,2.79,0,0,0-2.12-1.48.54.54,0,0,0-.41.36C47.76,70.53,49,71.76,49.8,71.75Zm4.7-2.31.08-.15a2.74,2.74,0,0,0,.5,0c.4-.08.55-.32.27-.63a2.73,2.73,0,0,0-2.21-1.06.91.91,0,0,0-.68.4.67.67,0,0,0,.23.65C53.27,68.94,53.9,69.17,54.5,69.44Z"/><path class="cls-7" d="M50.71,94.19A6.09,6.09,0,0,0,54.23,92a32.54,32.54,0,0,1,3.15-2.81.85.85,0,0,1,.67-.11,8.35,8.35,0,0,0,4.41,0c.43-.13.88-.2,1.38-.32.21,2.72.41,5.31.63,8H42.05c-1.72,0-2.61-.77-2.72-2.4-.07-.95-.16-1.91-.14-2.86A4.68,4.68,0,0,1,39.6,90c0-.1.24-.19.38-.21,1.49-.22,3-.47,4.46-.62a19.24,19.24,0,0,1,2.63,0,.76.76,0,0,1,.49.33c.85,1.16,1.68,2.33,2.49,3.5C50.31,93.42,50.5,93.82,50.71,94.19Z"/><path class="cls-7" d="M89.71,46.76H86.36c.32-1.38.62-2.72.93-4,.7-3.05,1.39-6.11,2.1-9.16a5.09,5.09,0,0,1,3.5-3.77l17-6.11,11.14-4,.67-.22c.39.95.76,1.89,1.17,2.9l-3.43,1.24c-8.31,3-16.61,6-24.93,8.93a2.9,2.9,0,0,0-2.1,2.33c-.8,3.77-1.7,7.52-2.56,11.27A6.28,6.28,0,0,1,89.71,46.76Z"/><path class="cls-7" d="M63.74,87.42c-.8.2-1.51.37-2.21.56a6.6,6.6,0,0,1-3.06-.11,1.18,1.18,0,0,1-.49-.24,5.26,5.26,0,0,0-4.59-1,14.71,14.71,0,0,1-2.31.12.83.83,0,0,0-.49.13,3.26,3.26,0,0,1-2.12.94,4.77,4.77,0,0,1-1.13.06,22.11,22.11,0,0,0-4.88.26,5,5,0,0,0-.85.21,4.47,4.47,0,0,1-3.94-.62,1.4,1.4,0,0,1-.43-1c-.07-1-.14-1.09-1.11-1.34a1,1,0,0,1-.58-.53,2.23,2.23,0,0,1,2-3,22.34,22.34,0,0,1,2.94.14c.52,0,.63.34.67.76a2.16,2.16,0,0,0,1.4,2,2.07,2.07,0,0,0,2.46-.7,3.61,3.61,0,0,1,3-1.31c1.56-.07,3.11-.15,4.66-.26.84-.06,1.69-.25,2.53-.27a11.21,11.21,0,0,1,2.31.2,3.5,3.5,0,0,0,3-.55,2.7,2.7,0,0,1,2.53-.2c.14,0,.24.23.33.37s0,.2,0,.3Z"/><path class="cls-7" d="M117.92,92.71h-3.57c-.08-1.56-.15-3-.23-4.49l-1-19.35c-.15-2.92-.27-5.85-.44-8.78,0-.5.1-.71.68-.71.75,0,1.51-.05,2.26-.11.48,0,.63.14.65.57.14,3.11.3,6.21.46,9.32q.42,8.45.85,16.89C117.7,88.24,117.81,90.43,117.92,92.71Z"/><path class="cls-7" d="M122.16,91.07c.07-.72.13-1.44.2-2.17q1-10.12,2.09-20.26c.12-1.23.26-2.46.36-3.69,0-.42.21-.55.64-.5.79.09,1.59.18,2.38.22.49,0,.6.23.55.65q-.34,3.24-.67,6.48c-.36,3.58-.73,7.17-1.1,10.75-.18,1.79-.36,3.57-.55,5.35,0,.19,0,.45-.18.55-1.17.93-2.37,1.82-3.56,2.72Z"/><path class="cls-7" d="M127.5,85.86c.27-1.32.45-2.65.81-3.94,1.55-5.56,3.15-11.11,4.72-16.67.22-.76.21-.76,1-.56s1.37.37,2.07.51c.47.1.55.32.43.73-1.12,3.9-2.28,7.79-3.3,11.71A12.36,12.36,0,0,1,131,81.8c-.92,1.24-1.9,2.43-2.85,3.65-.13.16-.29.31-.44.47Z"/><path class="cls-7" d="M72.62,50c0-1.22.7-1.91,2-1.91H93.16c2.2,0,4.41,0,6.62,0a1.66,1.66,0,0,1,1.8,1.9Z"/><path class="cls-7" d="M121.55,82.72c-.2-.94-.4-1.89-.59-2.83-.33-1.65-.66-3.29-1-4.94a7.87,7.87,0,0,1-.16-1.53c0-3.33,0-6.65,0-10,0-.54.15-.76.75-.73s1.3,0,2,0c.89,0,.93,0,.88.87-.13,2.25-.26,4.49-.47,6.73-.38,4-.81,8-1.23,12,0,.13,0,.26,0,.39Z"/><path class="cls-7" d="M38.26,78.32a3.14,3.14,0,0,0,2.49.72q9.41,0,18.8,0H63c.24.53,0,.78-.49.73a3.93,3.93,0,0,1-1.42-.38,1.13,1.13,0,0,0-1.53.09,4.69,4.69,0,0,1-3.08,1.14c-1.46.16-2.89.52-4.34.68s-2.85.19-4.28.23a4.54,4.54,0,0,0-3.81,1.63,1.22,1.22,0,0,1-1,.4c-.25,0-.42-.5-.59-.8a1.19,1.19,0,0,1-.07-.47,2.1,2.1,0,0,0-2.42-2c-1.18,0-1.82-.5-1.83-1.49A2.68,2.68,0,0,1,38.26,78.32Z"/><path class="cls-7" d="M113,92.26l-.15,0c-2-.51-2-.6-2-2.53.17-4.32.29-8.64.47-13a57.78,57.78,0,0,1,.57-5.83Q112.45,81.62,113,92.26Z"/><path class="cls-7" d="M119.24,92.4c-.31-6.21-.62-12.37-.93-18.52l.08,0c.09.4.19.8.27,1.2.82,4.1,1.67,8.2,2.41,12.31a12,12,0,0,1-.17,2.85c0,.17-.05.35-.06.53C120.72,92,120.72,92,119.24,92.4Z"/><path class="cls-7" d="M51.51,92.78l-2.46-3.73c1.23-.12,2.14-1.09,3.57-1,1.25.06,2.54-.59,3.69.11C54.73,89.66,53.13,91.2,51.51,92.78Z"/><path class="cls-7" d="M118.42,67c-.07-.35-.15-.69-.22-1a1.36,1.36,0,0,0-.09-.47c-.74-1-.28-2.15-.18-3.22.08-.84.24-1.66.33-2.49,0-.35.18-.5.57-.44.85.12,1.71.23,2.56.32.36,0,.48.18.43.51s-.11.82-.18,1.3h-1.33a1.58,1.58,0,0,0-1.79,1.7V67Z"/><path class="cls-7" d="M129.55,66.79l1.59.27-2.35,8.3h-.1C129,72.52,129.26,69.69,129.55,66.79Z"/></g></g></svg>