<svg xmlns="http://www.w3.org/2000/svg" viewBox="0 0 172 172"><defs><style>.cls-1{fill:#cc561e;}.cls-2{font-size:15px;font-family:MyriadPro-Regular, Myriad Pro;}.cls-2,.cls-6{fill:#fff2bd;}.cls-3{letter-spacing:0.58em;}.cls-4{letter-spacing:0.57em;}.cls-5{letter-spacing:0.58em;}</style></defs><title>greek-icon</title><g id="Livello_2" data-name="Livello 2"><g id="Livello_1-2" data-name="Livello 1"><rect class="cls-1" width="172" height="172" rx="12"/><text class="cls-2" transform="translate(50.06 150.92)"><tspan class="cls-3">G</tspan><tspan class="cls-4" x="18.45" y="0">r</tspan><tspan class="cls-3" x="31.97" y="0">e</tspan><tspan class="cls-5" x="48.25" y="0">c</tspan><tspan x="63.65" y="0">o</tspan></text><path class="cls-6" d="M35.14,121.66l1-5.21.78-.13v-1.54l1-.18q.24-24.64.47-49.2c-1.68-.66-2.22-1.75-1.66-3.38a1.82,1.82,0,0,1,.66-.82A1.74,1.74,0,0,0,38,58.91a13.43,13.43,0,0,1-.66-1.69c0-.14.25-.5.44-.54a5.12,5.12,0,0,1,1.18,0h96.63a2.78,2.78,0,0,1,1,0,.8.8,0,0,1,.4.65c-.08.57-.36,1.11-.42,1.67-.11,1-.38,1.87.48,2.9,1,1.2.12,2.92-1.5,3.45q.5,24.56,1,49.23l.92.19v1.48l1,.25c.08,1.26.16,2.5.24,3.8l1.44.12v1.24ZM75.67,71.9c0-2.22,0-4.45,0-6.67C74.17,65,74.17,65,73.92,62H63.41c-.06,1.39.71,3.23-1.76,3.29.33,16.5.67,32.9,1,49.34l1,.19v1.51l.94.2L65,120.3h7.92c.14-1.31.27-2.54.4-3.83l.89-.14.1-1.54,1-.27C75.34,109.89,75.62,78.86,75.67,71.9Zm26.58,48.4h7.17l.35-3.83,1-.18v-1.52l.94-.19c.16-16.49.32-32.89.47-49.35-2.45-.08-1.62-1.92-1.78-3.27h-9.58c-.06,1.38.58,3.11-1.73,3.32.34,16.48.67,32.88,1,49.33l1,.16v1.54l.93.18C102.07,117.78,102.16,119,102.25,120.3Zm27.56-5.69c.16-16.49.31-32.91.46-49.37-2.34-.2-1.48-2-1.8-3.27h-9.34a7,7,0,0,1-.12,1.76,2.17,2.17,0,0,1-.92,1.3,1,1,0,0,0-.69,1.11c.07,2.91.12,5.82.18,8.73.28,13.23.56,26.45.84,39.74l.94.14v1.59l.94.11c.11,1.31.23,2.55.34,3.85h6.83c.15-1.32.3-2.57.46-3.86l.93-.1v-1.58Zm-48.08-13.2c0,4.39,0,8.77,0,13.18l1.18.15v1.61l1,.1c.08,1.31.17,2.56.25,3.84H91l.41-3.85,1-.1v-1.58l.93-.17c.16-16.49.31-32.91.46-49.36C91.46,65,92.34,63.12,91.94,62H82.76c-.24,1.36.24,3-1.73,3.3,0,.93,0,1.79,0,2.66C81.19,75.55,81.72,100.11,81.73,101.41ZM54.57,62h-9.3a5.87,5.87,0,0,1,0,1.74,2.2,2.2,0,0,1-1,1.36c-.66.23-.7.56-.69,1.1.06,1.77.11,3.53.15,5.3q.44,21.24.86,42.49c0,.21,0,.42,0,.65l1,.2v1.53l1,.16.38,3.82h6.88l.25-3.84,1-.14v-1.59l.89-.12v-1.22q.22-23.43.43-46.84c0-.72.12-1.39-.88-1.64-.3-.08-.55-.7-.67-1.12A13.21,13.21,0,0,1,54.57,62Z"/><path class="cls-6" d="M32.74,54.84l-.17-1.52a7.56,7.56,0,0,0-.93.15,1,1,0,0,1-1.46-.83c-.18-.8.13-1.25,1-1.44q13.05-3,26.1-6.09Q70.59,42,83.91,38.92A8.79,8.79,0,0,1,86,39c.48-.82,1.4-.93,2.7-.61q26.43,6.55,52.88,13c.69.17,1.42.25,1.36,1.19s-.91.69-1.49.8l-.28.1-.23,1.36ZM87.11,42.61l.22-.07c.06-1.08.13-2.15.2-3.22h-.22l-.78,1.32.17.1.41-.32Z"/><path class="cls-6" d="M141.87,122.26v1.45h-1.2c-6.49,0-13,.14-19.47-.08-1.73-.06-3.41.06-5.12.06q-30,.07-59.93,0a1.91,1.91,0,0,1-1.22-.27c-.75-.75-1.43-.38-2.17-.07a3,3,0,0,1-1.09.33c-6.17,0-12.34,0-18.5,0a4.9,4.9,0,0,1-.59-.06v-1.39Z"/><path class="cls-6" d="M119.14,124.26a4.27,4.27,0,0,1-3.49,1.65q-29.52-.07-59.06,0c-1,0-1.76,0-1.45-1.66-.58.3-.91.48-1.24.64-.69.34-1.37.95-2.06,1-6.81.07-13.63,0-20.44,0a2.06,2.06,0,0,1-.39-.08v-1.53Z"/><path class="cls-6" d="M35.2,56.45V55.37H138.06l.05,1.08Z"/><path class="cls-6" d="M143,124.23v1.64H121.37c-1.44,0-1.48-.05-1.18-1.64Z"/></g></g></svg>