<svg xmlns="http://www.w3.org/2000/svg" viewBox="0 0 172 172"><defs><style>.cls-1{fill:#aa2b1d;}.cls-2{font-size:15px;font-family:MyriadPro-Regular, Myriad Pro;}.cls-2,.cls-8{fill:#fff2bd;}.cls-3{letter-spacing:0.29em;}.cls-4{letter-spacing:0.27em;}.cls-5{letter-spacing:0.27em;}.cls-6{letter-spacing:0.28em;}.cls-7{letter-spacing:0.28em;}</style></defs><title>international-icon</title><g id="Livello_2" data-name="Livello 2"><g id="Livello_1-2" data-name="Livello 1"><rect class="cls-1" width="172" height="172" rx="12"/><text class="cls-2" transform="translate(14.12 154.65)"><tspan class="cls-3">I</tspan><tspan class="cls-4" x="7.89" y="0">n</tspan><tspan class="cls-5" x="20.32" y="0">t</tspan><tspan class="cls-6" x="29.35" y="0">e</tspan><tspan class="cls-7" x="41.03" y="0">r</tspan><tspan class="cls-6" x="50.15" y="0">nazional</tspan><tspan x="136.25" y="0">e</tspan></text><path class="cls-8" d="M103.5,116.27a7.16,7.16,0,0,1-1.33.86,44.66,44.66,0,0,1-14.47,3c-19.26.6-34.47-7.1-44.61-23.39-9.88-15.89-10-32.63-1.43-49.24a45.34,45.34,0,0,1,18.47-19c16.78-9.37,33.85-9.54,50.21.42,17,10.31,24.87,26,23.69,45.94-.7,11.82-5.61,21.91-13.75,30.44a48.81,48.81,0,0,1-15.73,10.91A3.11,3.11,0,0,1,103.5,116.27Zm-18-.12c2.2-.25,4.77-.41,7.29-.85a44.46,44.46,0,0,0,22-10.58c1.26-1.1,1.28-1.36.15-2.66a3.09,3.09,0,0,1-.68-3c.15-.59.36-1.15.53-1.73.85-2.88.34-3.89-2.48-4.93-1.46-.54-1.85-1.36-1.11-2.76a5.3,5.3,0,0,1,1.44-1.55c.64-.52,1.4-.9,2.07-1.39A2.94,2.94,0,0,0,115.84,83c-.73-2-3.15-4.36-5.82-4.1a6.57,6.57,0,0,1-1.47-.08c-3.77-.48-5.23-2.08-5.32-5.78a5,5,0,0,0-2.45-4.47,49.19,49.19,0,0,0-4.69-2.24c-2-.91-2.62-1.82-2.38-4.07a7.07,7.07,0,0,1,4.89-6.35,19.59,19.59,0,0,0,8.53-5.37,8.93,8.93,0,0,0,2.53-6.82,21.23,21.23,0,0,0-3.21-9.7c-1.64-2.54-3.64-4.67-6.71-5.62A47.37,47.37,0,0,0,88.11,26,15.2,15.2,0,0,0,80,27.59a2.67,2.67,0,0,0-1.19,3.94,6,6,0,0,0,1.74,2,33.51,33.51,0,0,0,3.81,2.22c1.76.95,3.6,1.76,5.3,2.8,1.45.9,1.46,1.68.14,2.72s-2.92,2-4.33,3.11A16.19,16.19,0,0,0,82.59,47c-1.85,2.3-1.26,4.37,1.41,5.66.34.16.77.63.75.94a8.38,8.38,0,0,1-3.23,6.35,1.5,1.5,0,0,1-2.15-.18c-1-1-1.91-1.93-2.9-2.87A14.86,14.86,0,0,0,69.65,53c-4.85-1.2-8.51,2.87-9.05,6.16A5,5,0,0,0,66.85,65c.69-.18,1.38-.39,2.08-.56,1.81-.46,2.33-.14,2.62,1.71.23,1.46.35,2.93.55,4.39.52,4,2.51,6.83,6.43,8.27a43.85,43.85,0,0,1,6.27,2.88A12.28,12.28,0,0,1,91.27,90c.56,2.56,0,4.1-2.23,5.53-1.2.78-2.49,1.42-3.75,2.1-2,1.08-4,2.22-5.19,4.25A43,43,0,0,0,78,106.4c-.42,1-.8,2.1-1.91,2.38a4.29,4.29,0,0,1-2.56-.17c-.34-.15-.44-1.26-.35-1.89a9.06,9.06,0,0,0-.8-5.74,5,5,0,0,1,0-5.26A2.81,2.81,0,0,0,71.66,92a14.56,14.56,0,0,0-1.76-1.23c-1.25-.78-2.56-1.46-3.78-2.29-2.54-1.72-2.54-3.08-.07-4.85.77-.55,1.54-1.1,2.27-1.71a5,5,0,0,0,1.15-6.81,8.06,8.06,0,0,0-3.21-2.53c-2.21-1-4.57-1.55-6.86-2.32a15.71,15.71,0,0,1-9.13-7.53A25.42,25.42,0,0,1,47,51.25c0-.62,0-1.23-.82-1.4s-1.2.28-1.45.94c-1,2.71-2.33,5.35-3.1,8.14-3.51,12.7-1.83,24.8,5.22,35.9C55.68,108.79,68.75,115.52,85.53,116.15Z"/><path class="cls-8" d="M128,44.6c12.91,18.49,12,47-8.12,65.07s-47.83,15.46-63.76,2.62a50.4,50.4,0,0,0,33.14,8.77A50.38,50.38,0,0,0,134.92,77,50.66,50.66,0,0,0,128,44.6Z"/><path class="cls-8" d="M73.42,110c.42.06.77.12,1.13.14a4,4,0,0,0,4.15-2.7c.72-1.57,1.34-3.19,2.16-4.72A9.53,9.53,0,0,1,85,99c1.43-.76,2.88-1.5,4.27-2.34,3.06-1.89,3.82-3.78,2.9-7.28-.29-1.12-.78-2.18-1.06-3.38A8,8,0,0,1,92,87.34a34.25,34.25,0,0,1,1.6,4.45,4.79,4.79,0,0,1-2.14,5.52A43,43,0,0,1,86.89,100a12,12,0,0,0-6.43,7.51,12.35,12.35,0,0,1-.83,2A3.72,3.72,0,0,1,73.42,110Z"/><path class="cls-8" d="M45.77,51a8.94,8.94,0,0,1-.47,5.34c-4.88,12.89-4.07,25.44,2.54,37.57.25.47.51.93.76,1.39,0,0,0,.07,0,.1-3.18-2.83-7.07-14-7.53-21.63A43.64,43.64,0,0,1,45.77,51Z"/><path class="cls-8" d="M80.74,32.21C78.85,30.6,79,29,81.11,28.16a16.62,16.62,0,0,1,7.9-1,41.13,41.13,0,0,1,11.44,2.64,9.77,9.77,0,0,1,2.41,1.54,41.7,41.7,0,0,0-13.45-2.89,30.27,30.27,0,0,0-6.77,1A2.22,2.22,0,0,0,80.74,32.21Z"/><path class="cls-8" d="M83.8,51.18c-1.31-.83-1.62-2-.68-3.16a16.06,16.06,0,0,1,2.76-2.64c1.24-1,2.61-1.8,3.9-2.72,1-.76,2-1.6,2-3.08a1.91,1.91,0,0,1,.71,3.07,9.35,9.35,0,0,1-1.69,1.5c-1.58,1.15-3.23,2.22-4.79,3.41A4.77,4.77,0,0,0,83.8,51.18Z"/><path class="cls-8" d="M63.17,63.24a4.42,4.42,0,0,1-1.06-5.4,6.31,6.31,0,0,1,7.41-3.75,10.31,10.31,0,0,1,5.31,2.82c-3.14-1.47-6.22-2.93-9.36-.35C63.4,58.27,62.37,60.42,63.17,63.24Z"/><path class="cls-8" d="M79.32,61.14a3.73,3.73,0,0,0,4.13-1.58,11.45,11.45,0,0,0,2.49-6.34l.29-.15c.28.52.8,1,.8,1.57a8.91,8.91,0,0,1-3.72,7.51C82.11,63,81,62.73,79.32,61.14Z"/><path class="cls-8" d="M67.88,74.74c-4.63-1.6-9.66-2.24-13.45-5.75C58.48,71.92,63.8,71.89,67.88,74.74Z"/><path class="cls-8" d="M75.35,75.33c-2.73-3-2.11-7-3-10.68a3.79,3.79,0,0,1,1.54,2.85c.28,1.86.5,3.73.81,5.59A16.52,16.52,0,0,0,75.35,75.33Z"/><path class="cls-8" d="M104.7,78.67A16.47,16.47,0,0,0,111,80a5.64,5.64,0,0,1,2.48,1.24C110.3,81.19,107.12,81.16,104.7,78.67Z"/><path class="cls-8" d="M94.69,66.9c2.15,1,4.58,1.45,6.31,3.26C98.9,69.07,96.44,68.69,94.69,66.9Z"/><path class="cls-8" d="M70.7,92.9,66,90.05l.2-.33,4.75,2.84Z"/><path class="cls-8" d="M111.2,93l2.86,1.44-.25.48L111,93.48Z"/></g></g></svg>