<svg xmlns="http://www.w3.org/2000/svg" viewBox="0 0 172 172"><defs><style>.cls-1{fill:#064635;}.cls-2,.cls-3{fill:#fff2bd;}.cls-3{font-size:15px;font-family:MyriadPro-Regular, Myriad Pro;}.cls-4{letter-spacing:0.4em;}.cls-5{letter-spacing:0.39em;}</style></defs><title>italian-icon</title><g id="Livello_2" data-name="Livello 2"><g id="Livello_1-2" data-name="Livello 1"><rect class="cls-1" width="172" height="172" rx="12"/><path class="cls-2" d="M32.44,93c35.42-5.28,70.85-5.21,106.89-.62.3,1.86,2.66,11.83,2.66,13.94,0,.23-5.78,2-14,3.6-32.42,6.3-64.71,5.65-96.84-2.82C27.84,106.2,32.92,93.1,32.44,93Zm70.15,18.5c0-3.74.33-7.25-.08-10.64-.51-4.17-3.63-7.14-6.74-7.21s-6,2.45-6.43,6.39-.1,7.92-.1,12.12Zm-19.54.21c0-3.28.08-6.59,0-9.89-.14-4.46-2.68-7.84-6-8.16s-6.56,2.5-7.24,6.79c-.56,3.56-.51,7.24-.76,11.26Zm25-.71c1.92-.19,3.54-.32,5.16-.5,5.87-.65,6-.67,5.25-7.33a21.23,21.23,0,0,0-1.91-6.6c-.9-1.91-2.75-3.38-4.68-2.55-1.48.65-2.61,2.43-3.74,3.85a3.85,3.85,0,0,0-.53,2.24C107.74,103.62,107.93,107.17,108.1,111Zm-44.55.23c.2-4,.55-7.67.51-11.31,0-3-1.86-5.43-3.9-5.9s-4.3,1-5.62,3.81a5.94,5.94,0,0,0-.64,1.68c-.42,3.42-.77,6.86-1.17,10.49Zm67.51-3.62c-.74-3.44-1.24-6.69-2.17-9.79-.58-1.91-1.93-3.68-4-3.23-2.27.48-2.78,2.79-2.72,4.9.08,3.12.56,6.22.91,9.62Zm-91.4.19,8,1.4c.37-3.52.86-6.62,1-9.74.07-2-.4-4.22-2.56-4.75S42.6,95.83,42,97.75C41,100.85,40.49,104.11,39.66,107.76Zm-8.26-1.92L36.77,107c.44-3.38.94-6.44,1.17-9.52a2.83,2.83,0,0,0-1.34-2.1c-.41-.19-1.58.56-1.83,1.18C33.59,99.47,32.62,102.44,31.4,105.84ZM133.56,107l5-1.29a81.38,81.38,0,0,0-2.48-8c-.43-1-1.77-1.59-2.7-2.36-.4,1.15-1.2,2.33-1.12,3.42C132.45,101.43,133.06,104,133.56,107Z"/><path class="cls-2" d="M32.64,90.82c1-6,2-11.48,2.85-17a3.46,3.46,0,0,1,3-3.25,175.36,175.36,0,0,1,51.44-6.33,170.89,170.89,0,0,1,45.19,7l3.71,19.56A416.42,416.42,0,0,0,32.64,90.82Zm49.9-7.24c0-3.81.2-7.46-.06-11.07-.22-3.17-2.32-5.23-4.65-5.26S73.27,69.16,73,72.31c-.33,3.67-.08,7.41-.08,11.27Zm16.48.2c-.17-3.78-.19-7.27-.51-10.73s-2.53-5.63-5-5.59S89,69.77,88.77,73c-.22,3.52,0,7.07,0,10.76Zm15.66,1.45c-.42-4.26-.57-8.17-1.26-12-.4-2.21-2-4-4.29-3.59C107,70,106,72,105.88,74.2c-.15,3.46,0,6.93,0,10.57Zm-47.46-1c0-3.74.11-7,0-10.34-.12-2.74-1.67-4.8-3.5-4.9-2.34-.12-3.83,1.56-4.2,3.78-.64,3.78-.78,7.67-1.12,11.46ZM125.59,86c-.26-3.43-.35-6.4-.78-9.31a10.16,10.16,0,0,0-1.66-4.2c-1.33-1.87-3.17-1.55-4.14.58a7.17,7.17,0,0,0-.68,3c.09,3,.37,6.07.6,9.33Zm-78.93-.08,6.66-.5c.2-3.28.46-6.31.53-9.34,0-2.08-.36-4.34-2.53-4.68s-3,1.81-3.65,3.72a7.25,7.25,0,0,0-.38,1.78C47.06,79.73,46.88,82.59,46.66,85.89Zm88,1.51c-.66-4.11-1.1-7.72-1.9-11.23-.23-1-1.56-1.66-2.38-2.47-.59,1.11-1.65,2.21-1.68,3.34a62.86,62.86,0,0,0,.64,8.32,1.94,1.94,0,0,0,1.07,1.38A33.8,33.8,0,0,0,134.65,87.4ZM37,87.16c5.88-.56,4.81.36,5.42-5.2a27.31,27.31,0,0,0,.19-5.71c-.09-.91-1-1.71-1.6-2.57a12.24,12.24,0,0,0-2.22,2,6.42,6.42,0,0,0-.86,2.68C37.57,81.21,37.32,84.07,37,87.16Z"/><path class="cls-2" d="M36.3,69.67c.73-4.21,1.3-7.91,2-11.57a3,3,0,0,1,1.46-2A213.27,213.27,0,0,1,81,48.21c.22.26.37.37.42.51,1.9,6.07,1.91,6,7.77,6.24A114.56,114.56,0,0,1,132,65c1.89.86,3.07,1.92,2.81,4.64A178.6,178.6,0,0,0,36.3,69.67ZM72.19,60h6.08c0-2.16,0-4.06,0-6s-.71-3.73-2.72-3.87-3.08,1.6-3.3,3.62A58.18,58.18,0,0,0,72.19,60Zm-6.56,2V56.42c0-1.78-.37-3.78-2.2-3.57a4.61,4.61,0,0,0-3,3c-.49,2-.13,4.27-.13,6.67ZM54.37,63.62A43.63,43.63,0,0,0,54.31,58a9.92,9.92,0,0,0-1.46-2.93c-.87.59-2.3,1-2.52,1.8a69.44,69.44,0,0,0-1.19,7.74ZM39.42,66.21c4.29-.75,4.29-.75,4.71-4.91,0-.35.21-.75.1-1-.36-1-.82-2-1.24-3.05-.82.68-2.09,1.2-2.36,2.09A54,54,0,0,0,39.42,66.21Z"/><path class="cls-2" d="M39.33,53.89c.57-3.32,1.11-6.84,1.83-10.31a3.39,3.39,0,0,1,1.5-2.06,89.2,89.2,0,0,1,29.4-9.58,2.36,2.36,0,0,1,2,1.12c2,4.47,4,9,5.77,13.27Zm33.21-9.76-.44-4.5-3.29.47L69,44.39ZM61.33,41.6l.18,4,2.9-.32V41.24ZM57,47V43.34c-2.77.1-2.88.31-2.21,3.95Zm-6.67-1.41c-3-.32-2.25,1.76-2.19,3.46C50.92,49.49,50.35,47.46,50.29,45.54Z"/><text class="cls-3" transform="translate(42.24 155.65)"><tspan class="cls-4">I</tspan><tspan class="cls-5" x="9.63" y="0">talian</tspan><tspan x="79.29" y="0">o</tspan></text></g></g></svg>