<svg xmlns="http://www.w3.org/2000/svg" viewBox="0 0 172 172"><defs><style>.cls-1{fill:#aa2b1d;}.cls-2{font-size:15px;font-family:MyriadPro-Regular, Myriad Pro;}.cls-2,.cls-5{fill:#fff2bd;}.cls-3{letter-spacing:0.45em;}.cls-4{letter-spacing:0.44em;}</style></defs><title>mexican-icon</title><g id="Livello_2" data-name="Livello 2"><g id="Livello_1-2" data-name="Livello 1"><rect class="cls-1" width="172" height="172" rx="12"/><text class="cls-2" transform="translate(26.62 154.15)"><tspan class="cls-3">M</tspan><tspan class="cls-4" x="18.8" y="0">essican</tspan><tspan x="110.53" y="0">o</tspan></text><path class="cls-5" d="M94.26,50.63H74.49c-.64,2.2-.64,2.2-2.76,2.2H68.49c.43-1,.75-1.9,1.18-2.7.12-.22.56-.3.85-.31,1.07,0,2.15,0,3.36,0,0-1.5.1-2.89,0-4.26A11.63,11.63,0,0,0,72.91,43h25.6c-.13.78.53,1.72-.55,2.19,0,0-.06.22-.06.33,0,1.39,0,2.77,0,4.28a27.65,27.65,0,0,1,2.9,0,1.82,1.82,0,0,1,1.18.74c.55.85,1,1.82,1.44,2.76h1.77c1.33,0,1.86.59,2.18,2a7.66,7.66,0,0,0,.9,1.87c.21.41.45.81.81,1.45h-3.74c-1.7,0-3.39,0-5.09,0-.62,0-.9-.23-1-.94-.19-1.39-.45-2.78-.7-4.28h4.18v-.16c-1,0-2.06-.08-3.07,0S98.29,53,98.21,52a15.79,15.79,0,0,0-.31-1.59c-1.16.24-2.27.44-3.37.71-.17,0-.25.41-.43.53a1.87,1.87,0,0,1-.92.46c-2.85,0-5.7,0-8.55,0H78.46c-.38,0-.76,0-1.21-.08l.27-1.23H94.26Zm-9.39-4.72V48.8h2V45.91Zm10.32-.62,0,0H86.14v0Zm-19.65,0v0h7.55v0Zm30.13,10.21,0-.07H99.77v.07Z"/><path class="cls-5" d="M65.5,100.41l-.94,5.17H15.27c.86-1.73,1.59-3.31,2.43-4.81.16-.28.76-.34,1.16-.34,7.79,0,15.58,0,23.37,0H65.5Z"/><path class="cls-5" d="M156.73,105.92h-6.47c-13.71,0-27.41-.07-41.12,0-1.07,0-1.46-.34-1.57-1.5s-.36-2.23-.58-3.47c.46,0,.8-.07,1.15-.07q22.56,0,45.12,0a1.34,1.34,0,0,1,1.42.94C155.28,103.1,156,104.38,156.73,105.92Z"/><path class="cls-5" d="M24.09,97.16a3.59,3.59,0,0,1,.12-.37c2.05-4,2.05-4,6.06-4H66.84c-.24,1.35-.43,2.58-.7,3.79a.91.91,0,0,1-.67.52,14,14,0,0,1-1.83,0H24.09Z"/><path class="cls-5" d="M144.09,93.41c1-.34,1.66-.06,2.17,1s1.12,2,1.8,3.14h-1.45q-19.43,0-38.84,0c-1,0-1.61-.21-1.67-1.52a20.94,20.94,0,0,0-.45-2.73h35.78l0,1.08,1.46-1.08.76,1.38Z"/><path class="cls-5" d="M30,90.08c.77-1.33,1.43-2.53,2.16-3.69A1.1,1.1,0,0,1,33,86q17.31,0,34.61,0a2.3,2.3,0,0,1,.4.08l-.7,4Z"/><path class="cls-5" d="M105.14,90.58l-.74-4.11h1.14q16.54,0,33.09,0a1.49,1.49,0,0,1,1.58.93c.36.75.81,1.44,1.24,2.15s.3,1-.46,1.09H106.07C105.78,90.63,105.5,90.6,105.14,90.58Z"/><path class="cls-5" d="M96.37,67.85H74.28c.19-1.11.36-1.16.55-2.28H96.58c.37,2,.73,4.09,1.11,6.2H73.85c0-.09-.11-.16-.1-.22C74.19,69,74.19,69,76.54,69H96.33S96.35,67.89,96.37,67.85ZM95.9,66v0H75.6v0Z"/><path class="cls-5" d="M66,97.56l-.39,2.35H17.9c.32-1.76.89-2.32,2.38-2.32l44.44,0Z"/><path class="cls-5" d="M106.87,100.35l-.36-2.26c.39,0,.71-.06,1-.06l44,0c1.84,0,1.93.08,2.65,2.35Z"/><path class="cls-5" d="M68.66,82.72H38.6c.66-1.12,1.24-2.17,1.89-3.16.13-.2.51-.25.78-.25q13.78,0,27.57,0a2.27,2.27,0,0,1,.38.1Z"/><path class="cls-5" d="M133.44,83.2H103.83l-.62-3.46h1.28c8.57,0,17.14,0,25.71,0a1.87,1.87,0,0,1,2,1.24C132.52,81.69,133,82.37,133.44,83.2Z"/><path class="cls-5" d="M68.48,83.22c-.21,2.44-.21,2.44-2.19,2.44H32.46c.33-1.83.83-2.32,2.32-2.33l32.31-.11Z"/><path class="cls-5" d="M26.53,92.29c.34-1.3.89-1.87,2.16-1.86,12.4.07,24.81,0,37.22,0h1.34l-.32,1.81Z"/><path class="cls-5" d="M139.69,86.07H105.88c-1.79,0-1.84,0-1.82-2.4h1.16q13.4,0,26.81,0a41.86,41.86,0,0,0,4.75,0C138.38,83.51,139.19,84.27,139.69,86.07Z"/><path class="cls-5" d="M44.92,76.57c.62-1,1.13-2,1.7-2.83a1,1,0,0,1,.77-.27q11.24,0,22.48,0a2.07,2.07,0,0,1,.41.09c-.18,1-.35,2-.53,3Z"/><path class="cls-5" d="M101,96.81H69.25l0-.42a10,10,0,0,1,1.32-.18H98.45a13.72,13.72,0,0,0,2.92-.21H69.46v-.36H101.1v-.41h-22v-.34h22.68l.58,3.38H69.05l.18-1.21H101Z"/><path class="cls-5" d="M127.12,77H102.71l-.53-3.11h1.41c6.74,0,13.49,0,20.23,0a2.13,2.13,0,0,1,2.32,1.41A19,19,0,0,0,127.12,77Z"/><path class="cls-5" d="M98.48,37.1V40H73.31V37.1Z"/><path class="cls-5" d="M105.54,92.85l-.3-1.92h1.28q16.82,0,33.62,0c.42,0,.83.36,1.27.47a1.91,1.91,0,0,0,.78-.06l.82-.15c-.11.39-.13,1-.36,1.13a3.82,3.82,0,0,1-1.73.49c-5.95,0-11.9,0-17.84,0H105.54Z"/><path class="cls-5" d="M71.41,67.21l-.56,3.24H51.51c.66-1.12,1.23-2.13,1.86-3.11a.84.84,0,0,1,.65-.28c5.73,0,11.46,0,17.2,0C71.25,67.11,71.28,67.14,71.41,67.21Z"/><path class="cls-5" d="M120.56,71H101.63L101,67.53h1.18c5.08,0,10.15,0,15.23,0a1.75,1.75,0,0,1,1.81,1.12C119.59,69.36,120,70.05,120.56,71Z"/><path class="cls-5" d="M97.85,40.29v2.35H73.94V40.29Z"/><path class="cls-5" d="M96.54,64.3H74.92c.15-.92.29-.76.44-1.68H96.05C96.2,63.44,96.36,63.28,96.54,64.3Z"/><path class="cls-5" d="M40.59,78.76c.36-1.27.92-1.89,2.24-1.88,8.5.09,17,.05,25.51.05h1.34l-.33,1.83Z"/><path class="cls-5" d="M102.89,77.4H104c8.4,0,16.79,0,25.19,0,1.31,0,1.85.61,2.3,2H104.46C103,79.31,103,79.32,102.89,77.4Z"/><path class="cls-5" d="M56.74,64.58a4.56,4.56,0,0,1,.13-.46c1-2.62,2.61-3.52,5.15-3.27a90.83,90.83,0,0,0,9.19.08h1.31c-.19,1.13-.34,2.13-.55,3.11a.81.81,0,0,1-.56.52C66.55,64.59,61.7,64.58,56.74,64.58Z"/><path class="cls-5" d="M72.19,80.57l.3-2H98.94l.29,2Z"/><path class="cls-5" d="M70.63,70.94c-.06,2.22-.06,2.22-1.74,2.22h-22c.34-1.78.71-2.14,2.1-2.15l20.41-.07Z"/><path class="cls-5" d="M102.09,73.45l-.36-2H103c6.59,0,13.18.08,19.77,0,1.37,0,2.08.51,2.45,2.06Z"/><path class="cls-5" d="M99.48,82.05H73.78v.24H99.57l.19,1.25H71.7c.24-2,.24-2,2-2H98.26a8.72,8.72,0,0,1,1.25.16Z"/><path class="cls-5" d="M111.29,63.52c.08-.29.13-.55.21-.79.14-.44.24-1.2.47-1.25.61-.16,1.34-.32,1.78.6s1,1.83,1.63,2.89h-14.8L99.9,61.4h7.25c.9,0,1.8-.24,2.34,1.09C109.7,63,110.61,63.16,111.29,63.52Z"/><path class="cls-5" d="M103.35,103.65l.21,1.19H67.85l.21-1.19Zm-1.15.63v0H68.61v0Z"/><path class="cls-5" d="M71.84,64.86l-.33,1.88h-18c.43-1.7.63-1.88,2.16-1.88H71.84Z"/><path class="cls-5" d="M69,102.24h34.27c-.71.58-32.8.8-34.93.34l.05-1c2-.45,34.12-.24,34.86.34H69Z"/><path class="cls-5" d="M118.64,67.27h-17c-1.22,0-.71-1.14-1-1.94h1.26c4.83,0,9.65.07,14.48,0C117.67,65.26,118.22,65.88,118.64,67.27Z"/><path class="cls-5" d="M68.47,101l.67-.34-.58-.2,0-.28h34.18v.33H70.34v.34h32.53v.34H68.54Z"/><path class="cls-5" d="M94.43,53.74l.43,2H76.59l.38-2ZM94,55.13v-.05H77.47v.05Z"/><path class="cls-5" d="M62.8,58.48c.68-1.15,1.17-2,1.72-2.89a1,1,0,0,1,.71-.42c2.72,0,5.44,0,8.34,0-.18,1-.31,2-.53,2.83a.8.8,0,0,1-.61.47C69.31,58.49,66.19,58.48,62.8,58.48Z"/><path class="cls-5" d="M72.61,60.6H58.77c.49-1.81.67-2,2.2-2H71.86c.32,0,.63,0,1,.08Z"/><path class="cls-5" d="M99.53,58.88c3.92.16,7.77-.38,11.69.62.16-.09.74-.59.87-.47a11.14,11.14,0,0,1,1.32,1.75l-.24.47c-.61-.23-1.22-.5-1.84-.67a2.55,2.55,0,0,0-1.16-.08,14.68,14.68,0,0,1-2.16.57c-2.15.08-4.32,0-6.47,0C99.8,61.09,99.8,61.09,99.53,58.88Z"/><path class="cls-5" d="M97.78,72.46H74.92v.3h23v.33H73.59c-.15-1,.28-1.19,1.13-1.19,7.33,0,14.65,0,22,0a7.41,7.41,0,0,1,1.13.19Z"/><path class="cls-5" d="M67.7,105.67c.92-.85,35.5-.74,36.2,0Z"/><path class="cls-5" d="M95.91,61.73c-.06.22-.07.54-.2.63s-.42,0-.64,0l-18.69,0c-.28,0-.56,0-.92,0l.16-1.12a1.16,1.16,0,0,1,.32-.1c6.37,0,12.75,0,19.12,0,.29,0,.58.39.86.6h0Z"/><path class="cls-5" d="M71.08,90.36h5.46v.38c-2,.41-4.09.07-6.23.19l.21-1.22h30.39v.34H71.08Z"/><path class="cls-5" d="M94.38,53.38H77l.26-1.1H94.21l0,.35a8.47,8.47,0,0,1-1.31.2c-4.64,0-9.28,0-13.92.21H94.38Z"/><path class="cls-5" d="M73.89,53c-.2,2-.2,2-1.78,2-2,0-4.11,0-6.16,0-.41,0-.83-.07-1.31-.11.41-1.35.92-2.08,2.26-2C69.19,53.11,71.5,53,73.89,53Z"/><path class="cls-5" d="M68.81,99.37h33.83v.3H68.79Z"/><path class="cls-5" d="M102.67,99H68.88C69.45,98.32,101.77,98.25,102.67,99Z"/><path class="cls-5" d="M100.72,89.31h-30V89h30.06Z"/><path class="cls-5" d="M100.5,87.81H70.94v-.29h29.57Z"/><path class="cls-5" d="M100.25,86.37H71.19v-.29h29.08Z"/><path class="cls-5" d="M100,85H71.34C72.06,84.32,98.89,84.2,100,85Z"/><path class="cls-5" d="M99.85,84.27H71.5C72.16,83.6,98.92,83.5,99.85,84.27Z"/><path class="cls-5" d="M99.37,81.29H71.91C72.76,80.65,98.39,80.59,99.37,81.29Z"/><path class="cls-5" d="M98.77,78.22H72.67v-.3H98.78Z"/><path class="cls-5" d="M98.55,76.78H72.83C73.38,76.24,97,76,98.55,76.78Z"/><path class="cls-5" d="M98.31,75.3H73.13V75H98.31Z"/><path class="cls-5" d="M98.15,73.86h-25C74.14,73.18,97.43,73.22,98.15,73.86Z"/><path class="cls-5" d="M101,90.73c-1.54.45-21.56.24-22.44-.23C80.47,90,100.54,90.25,101,90.73Z"/><path class="cls-5" d="M78.68,91.91h22.75C100.6,92.61,79.93,92.58,78.68,91.91Z"/><path class="cls-5" d="M101.43,93.14c-7.4,0-14.79,0-22.18,0v-.51h22.19Z"/><path class="cls-5" d="M75.86,59.81H95.59v.3H75.84Z"/><path class="cls-5" d="M76.15,58.32H95.3v.29H76.14Z"/><path class="cls-5" d="M95.06,57.17H76.24C77,56.58,94,56.48,95.06,57.17Z"/><path class="cls-5" d="M77.78,92.24h-7v.32h6.2V93c-2.27.28-4.56.07-7,.15l.14-1.29H77.8Z"/><path class="cls-5" d="M76.29,95.17H69.65v-.31H76.3Z"/><path class="cls-5" d="M145.63,92.72C143.88,93,143.88,93,144,91,145.18,90.79,145.09,92.07,145.63,92.72Z"/></g></g></svg>